<svg id="Flower_Icon" data-name="Flower Icon" xmlns="http://www.w3.org/2000/svg" width="234.072" height="259.988" viewBox="0 0 234.072 259.988">
  <g id="Group_99" data-name="Group 99" transform="translate(0 0)">
    <path id="Path_159" data-name="Path 159" d="M879.583,337.159a.651.651,0,0,1-.289-1.234c8.185-4.077,14.9-12.35,18.424-22.7,3.487-10.236,3.69-21.362,3.478-29.912l-.026-1.016c-.145-5.429-.294-11.042,1.978-16.041a17.461,17.461,0,0,1,1.629-2.829.655.655,0,0,1-.049-.511c3.52-11.08,4.214-19.813,2.182-27.483a26.851,26.851,0,0,0-3.459-7.791c-4.206-.089-8.366-1.859-12.366-4.515a21.848,21.848,0,0,1-.657,9.443,20.732,20.732,0,0,1-10.006,12.7,1.113,1.113,0,0,1-1.463-.41,18.905,18.905,0,0,1-1.4-15.686,19.314,19.314,0,0,1,7.872-10.418c-1.321-1.15-2.616-2.36-3.881-3.6a15.036,15.036,0,0,1-6.726,1.89,49.286,49.286,0,0,1-29.186,5.018,1.388,1.388,0,0,1-1.042-.741,1.4,1.4,0,0,1,.005-1.291c3.324-6.319,11.174-8.643,17.412-8.711a70.722,70.722,0,0,1,10.608.937c2.244.311,4.535.628,6.831.8q-.7-.711-1.377-1.424c-2.615-2.735-5.066-5.7-7.436-8.559-.962-1.162-1.932-2.333-2.921-3.5a11.523,11.523,0,0,1,.1,1.471.652.652,0,0,1-1.145.427c-2.53-2.946-6.161-4.373-10.006-5.885a44.694,44.694,0,0,1-6.749-3.1c-9.709-5.847-13.141-17.9-15.6-28.732a1.3,1.3,0,0,1,1.4-1.582,33.879,33.879,0,0,1,27.214,19.791,66.354,66.354,0,0,1,2.379,6.706,63.2,63.2,0,0,0,2.427,6.791,31.146,31.146,0,0,0,16.814,16.1.652.652,0,0,1,.236,1.049c-.181.2-.37.387-.563.571a4.373,4.373,0,0,1,1.436.348,3.528,3.528,0,0,1,2.146,2.922.649.649,0,0,1,.52-.185,21.253,21.253,0,0,1,12.785,6.413c-2.862-6.346-5.85-13.132-8.758-19.736-3.617-8.217-7.358-16.714-10.825-24.29-1.865-4.073-3.788-8.271-4.5-12.81q.041.625.1,1.249a1.587,1.587,0,0,1-.863,1.587,1.564,1.564,0,0,1-1.763-.233L831.5,130c-2.784-2.489-5.662-5.064-9.133-6.515-9.265-3.872-19.405,1.234-27.206,6.115a3.02,3.02,0,0,0-.687,4.529c4.873,5.672,10.909,11.557,18.733,12.221,4.827.4,9.645-1.324,14.3-3,4.154-1.5,8.427-3.038,12.827-3.124a23.554,23.554,0,0,0-21.261-1.02.651.651,0,0,1-.542-1.184,24.836,24.836,0,0,1,24.557,2.435.653.653,0,0,1,.223.763.66.66,0,0,1-.679.412c-4.974-.565-9.907,1.221-14.685,2.945s-9.726,3.511-14.848,3.072c-8.292-.7-14.568-6.8-19.611-12.669a4.323,4.323,0,0,1,.982-6.483c8.069-5.047,18.591-10.312,28.4-6.212,3.674,1.536,6.636,4.185,9.5,6.746l43,38.459a.26.26,0,0,0,.3.042.285.285,0,0,0,.158-.294c-.607-6.075.409-12.41,1.3-18a58.994,58.994,0,0,1,1.425-6.815,82.81,82.81,0,0,0-3.494-23.313q-.457-1.065-.937-2.121a.65.65,0,0,1-.438-.453q-.174-.645-.369-1.285-.411-.864-.835-1.719c-1.944-3.1-5.635-5.119-8.744-6.35-.977-.388-1.977-.749-2.976-1.11-3.722-1.347-7.571-2.739-10.462-5.556-5.411-5.266-5.717-13.541-5.58-20.883a1.26,1.26,0,0,1,.4-.894,1.238,1.238,0,0,1,.925-.327c4.822.3,9.851.829,13.672,3.728,3.666,2.78,5.571,7.287,7.1,10.908a224.8,224.8,0,0,1,9.475,25.637,114.346,114.346,0,0,1,5.652,16.557,12.765,12.765,0,0,1,3.229-2.967,22.808,22.808,0,0,1,6.07-2.423,33.912,33.912,0,0,0,7.741-7.742,1.206,1.206,0,0,1-1.264-.676,50.82,50.82,0,0,0-3.8-6.169,39.228,39.228,0,0,1-4.875-8.624c-3.393-9.425.638-19.374,5.058-28.754a1.241,1.241,0,0,1,1.5-.659c4.389,1.419,7.152,5.632,8.7,8.917,3.808,8.108,4.085,18.031.756,27.228a39.071,39.071,0,0,1-2.539,5.6,9.483,9.483,0,0,1-1.39,7.054c-2.062,2.967-5.565,3.957-8.952,4.915l-.358.1a31.579,31.579,0,0,1-4.765,2.766l-.267.124c-1.528.709-2.972,1.378-3.224,3.184a3.487,3.487,0,0,0-.027.689l.048.027A26.784,26.784,0,0,1,923,158a.654.654,0,0,1-.427.7c-7.526,2.707-16.34,2-24.175-1.95a31.332,31.332,0,0,1-15.249-16.211,5.458,5.458,0,0,1-.4-.7c-.044.029-.089.057-.134.085a.654.654,0,0,1-.6.055.644.644,0,0,1-.387-.463q-.105-.477-.212-.951a24.1,24.1,0,0,0-1.556,4.055,62.724,62.724,0,0,1-.382,6.272c-.163,1.459-.38,2.92-.6,4.379a45.007,45.007,0,0,0-.73,11.161c.5,4.826,2.564,9.335,4.563,13.7,3.471,7.584,7.213,16.086,10.832,24.306,3.595,8.165,7.309,16.607,10.759,24.147a28.121,28.121,0,0,1,3.867,8.521c1.966,7.423,1.476,15.764-1.557,26.1A22.42,22.42,0,0,1,917.8,254.98a86.273,86.273,0,0,0,16.47-15.583c.525-3.648,3.282-6.952,4.393-8.154.409-.443.833-.886,1.257-1.333,1.015-1.066,2.043-2.146,2.943-3.274q1.423-2.591,2.663-5.281a7.941,7.941,0,0,0,.1-.831c.163-2.341-.775-4.687-1.6-6.757-.758-1.9-1.51-3.751-2.275-5.559-2.958-2.036-6.938-2.4-11.1-2.786a36.443,36.443,0,0,1-9.515-1.722c-9.881-3.738-13.52-15.5-15.587-25.327a1.962,1.962,0,0,1,1.861-2.36c8.411-.236,17.426,4.208,24.1,11.906a61.105,61.105,0,0,1,8.721,13.727,29.058,29.058,0,0,1,3.348,4.965,65.405,65.405,0,0,1,4.728,6.5c-.229-6.593,1.547-13.076,3.67-19.407a37.548,37.548,0,0,0-.466-4.808.648.648,0,0,1-.272-.245,37.351,37.351,0,0,1,0-38.218,2.115,2.115,0,0,1,1.65-1,2.041,2.041,0,0,1,1.73.728c8.027,9.631,5.1,24.238,2.645,32.086-.758,2.419-1.621,4.878-2.456,7.256-.512,1.457-1.027,2.924-1.523,4.4a57.032,57.032,0,0,1-2.865,18.4,81.761,81.761,0,0,1-3.643,9.443,13.12,13.12,0,0,1-2.842,5.636,87.217,87.217,0,0,1-8.422,12.543,5.917,5.917,0,0,0,.509,3.117l.136-.027a23.459,23.459,0,0,1,2.4-1.724c5.187-3.242,13-4.128,17.9.443a13.938,13.938,0,0,1,1.221,1.311,34.173,34.173,0,0,0,9.5-.975c4.542-1.221,8.59-3.718,12.47-6.345a7.107,7.107,0,0,1,3.875-2.66l.9-.616a81.159,81.159,0,0,0,4.423-7.2c3.179-5.6,6.466-11.4,12.138-14.491,6.1-3.325,13.549-2.688,19.54-2.172a6.71,6.71,0,0,1,3.89,1.214,5.7,5.7,0,0,1,1.608,2.908c1.9,7.084-1.889,15.3-9.013,19.541-5.808,3.455-13.641,4.416-22.065,2.709-3.288-.668-7.072-1.436-10.1-.881a22.567,22.567,0,0,1-6.834,6.227c-4.849,2.731-12.289,4.3-19.292,4.1.163.225.326.451.483.675a25.322,25.322,0,0,0,2.087,2.662c3.39,3.6,8.289,4.706,13.477,5.873,2.1.473,4.275.962,6.318,1.631,13.364,4.376,22.73,18.37,21.788,32.552a1.281,1.281,0,0,1-.963,1.169,1.3,1.3,0,0,1-1.44-.546c-2.309-3.49-6.112-5.665-10.138-7.966a57.214,57.214,0,0,1-6.561-4.158,69.746,69.746,0,0,1-16.417-18.547,1.154,1.154,0,0,1,.245-1.466,1.3,1.3,0,0,1,.149-.109,35.827,35.827,0,0,1-10.78-11.841c-1.992-.052-3.979-.189-5.943-.324-4.74-.326-9.631-.665-14.287.22-3.531,2.964-6.244,6.927-8.666,10.638a34.694,34.694,0,0,1,11.558,4.409,41.76,41.76,0,0,1,19.623,29.1,1.2,1.2,0,0,1-.65,1.273,1.239,1.239,0,0,1-1.441-.232,9.266,9.266,0,0,0-5.811-2.254c-.968-.065-1.971-.063-2.948-.055a18.883,18.883,0,0,1-6.607-.748c-5.554-2.009-7.85-8.431-8.724-12.08-.319-1.332-.58-2.7-.834-4.031a42.706,42.706,0,0,0-2-7.8,1.242,1.242,0,0,1,1.2-1.708q-2.451-2.416-5.016-4.7a.68.68,0,0,1-.107-.122,25.1,25.1,0,0,0-6.453.016c-.509.069-1.016.158-1.517.263a82.879,82.879,0,0,1-11.82,7.075,16.552,16.552,0,0,0-2.19,3.524c-2.147,4.724-2,10.186-1.86,15.467l.026,1.019c.214,8.658.005,19.934-3.547,30.364-3.634,10.672-10.587,19.218-19.078,23.447A.642.642,0,0,1,879.583,337.159ZM949.236,285.8c.732,0,1.474.01,2.207.06a10.6,10.6,0,0,1,6.488,2.482A40.448,40.448,0,0,0,938.966,260.4a33.71,33.71,0,0,0-10.3-4.089,133.994,133.994,0,0,1,9.645,9.769.651.651,0,0,1-.9.937l-6.07-4.985A35.051,35.051,0,0,1,933.52,270c.25,1.313.509,2.67.822,3.974.813,3.394,2.919,9.356,7.9,11.158a17.69,17.69,0,0,0,6.156.67Zm19.612-28.088a68.794,68.794,0,0,0,15.722,17.554,56.218,56.218,0,0,0,6.411,4.059c3.982,2.276,8.1,4.629,10.578,8.378.92-13.6-8.062-27.021-20.876-31.217-1.986-.65-4.128-1.132-6.2-1.6-3.519-.792-7.12-1.6-10.217-3.278,4.116,3.9,9.592,7.328,16.523,10.365a.653.653,0,0,1,.354.81.645.645,0,0,1-.779.417A38.334,38.334,0,0,1,968.848,257.71Zm-55.063-.007a21.132,21.132,0,0,0-3.924,2.346Q911.855,258.932,913.785,257.7Zm9.3-3.29a27.7,27.7,0,0,1,3.574.236c2.362-3.632,4.98-7.561,8.384-10.668a6.91,6.91,0,0,1-.809-2.5,87.734,87.734,0,0,1-13.657,13.058Q921.82,254.413,923.089,254.413Zm-36.622-34.763a17.939,17.939,0,0,0-7.677,9.935,17.658,17.658,0,0,0,1.188,14.449,19.484,19.484,0,0,0,9.2-11.828,20.367,20.367,0,0,0,.381-10.139q-.5-.365-1-.745l-.141,1.935a.652.652,0,0,1-1.21.287,6.877,6.877,0,0,1-.688-3.851Zm57.041,22.708c2.548,0,5.1.176,7.61.349,1.578.109,3.171.219,4.768.284-.1-.1-.208-.206-.315-.306-4.42-4.124-11.555-3.268-16.32-.291-.1.063-.2.126-.3.19A42.1,42.1,0,0,1,943.508,242.359Zm36.48-5.286a65.337,65.337,0,0,1-5.927,3.621,24.154,24.154,0,0,0,3.314-1.527,18.189,18.189,0,0,0,3.458-2.552l-.493.343A.655.655,0,0,1,979.988,237.073Zm-40.545-4.748a19.45,19.45,0,0,0-2.81,4.027Q938.095,234.379,939.443,232.325Zm47.743.271a41.5,41.5,0,0,1,8,1.077c8.126,1.652,15.632.743,21.161-2.547,6.528-3.881,10.147-11.656,8.422-18.083a4.516,4.516,0,0,0-1.2-2.255,5.512,5.512,0,0,0-3.156-.907c-5.816-.5-13.052-1.12-18.8,2.018-5.344,2.917-8.538,8.546-11.627,13.989-.869,1.531-1.746,3.076-2.677,4.576l10.517-7.24a.651.651,0,0,1,.741,1.071l-11.959,8.31C986.8,232.6,986.991,232.6,987.187,232.6Zm-96.474-11.3c3.834,2.72,7.807,4.642,11.789,4.989a21.313,21.313,0,0,0-13.075-8.539A18.639,18.639,0,0,1,890.712,221.3Zm-28.307-8.667h-.382c-5.865.065-13.219,2.2-16.276,8.015l-.026.78.089-.645a48.016,48.016,0,0,0,26.3-3.861,13.565,13.565,0,0,1-5.1-1.785.651.651,0,0,1-.274-.787.641.641,0,0,1,.723-.413l8.061,1.425a.653.653,0,0,1,.442.3,13.663,13.663,0,0,0,4.21-1.243c-2.61-.152-5.2-.512-7.734-.863A73.494,73.494,0,0,0,862.406,212.631Zm26.265,7.135c.094.074.189.15.285.223-.081-.223-.164-.443-.254-.662Zm55.356-9.483c.405.988.807,1.99,1.212,3a23.331,23.331,0,0,1,1.588,5.1q.708-1.71,1.334-3.45a1.1,1.1,0,0,1-.52-.44q-1.372-2.214-2.925-4.315a.635.635,0,0,1-.1.072A.65.65,0,0,1,944.027,210.283Zm-61.3,4.212c1.26,1.223,2.548,2.417,3.858,3.546.03-1.657-.176-2.739-1.454-3.308a3.59,3.59,0,0,0-1.508-.251C883.32,214.49,883.022,214.5,882.723,214.5Zm-1.341-1.325q.412.014.825.02.493-.365.947-.78a31.981,31.981,0,0,1-5.35-2.96q.6.653,1.208,1.291C879.787,211.551,880.578,212.365,881.382,213.17Zm70.506-14.863a51.353,51.353,0,0,0-2.259,12.135A58.49,58.49,0,0,0,951.889,198.307Zm-43.818-21c-.21,0-.417,0-.624.009a.653.653,0,0,0-.5.251.642.642,0,0,0-.128.537c2,9.5,5.484,20.862,14.772,24.376a35.526,35.526,0,0,0,9.172,1.644c3.527.324,7.133.655,10.133,2.1q-.317-.725-.641-1.442a64.686,64.686,0,0,0-12.478-10.529.652.652,0,0,1,.588-1.156,28.777,28.777,0,0,1,8.763,5.356,54.33,54.33,0,0,0-6.6-9.677C924.271,181.559,915.919,177.308,908.071,177.308Zm-72.489-13.826c2.4,10.57,5.733,22.317,15,27.9a43.921,43.921,0,0,0,6.555,3c3.251,1.278,6.594,2.594,9.207,4.92a10.75,10.75,0,0,0-.538-1.923,72.173,72.173,0,0,0-6.6-6.681.651.651,0,0,1,.658-1.1,12.4,12.4,0,0,1,6.2,5.269c-.771-1.906-1.391-3.877-1.995-5.793a65.071,65.071,0,0,0-2.331-6.574A32.556,32.556,0,0,0,835.581,163.482ZM948.807,178.25a.651.651,0,0,1,.572.337,32.143,32.143,0,0,1,3.682,11.978c.175-.5.348-1,.524-1.5.831-2.366,1.69-4.814,2.44-7.213,2.379-7.6,5.231-21.706-2.4-30.862a.742.742,0,0,0-.635-.264.8.8,0,0,0-.632.383,36.193,36.193,0,0,0-3.995,27.31.682.682,0,0,1,.188-.121A.66.66,0,0,1,948.807,178.25Zm-63.252-35.573a30.617,30.617,0,0,0,13.426,12.905,29.7,29.7,0,0,0,22.652,2.061A25.475,25.475,0,0,0,884.951,138.6l7.824,4.344a.652.652,0,0,1-.356,1.22C890.268,144.029,887.708,143.873,885.555,142.677Zm-1.251-2.756a4.717,4.717,0,0,0,.482.568,8.142,8.142,0,0,0,4.64,2.083l-5.214-2.9C884.242,139.76,884.273,139.84,884.3,139.921Zm-5.721-11.528a77.505,77.505,0,0,1,1.213,10.538,19.423,19.423,0,0,1,1.17-2.257Q879.939,132.5,878.584,128.393Zm22.776-7.459a36.281,36.281,0,0,1-6.75,7.92,10.174,10.174,0,0,0,5.451-3.567A7.543,7.543,0,0,0,901.36,120.934Zm-1.786-7.071.46,6.728c.389-.6.765-1.221,1.124-1.85A22.149,22.149,0,0,0,899.573,113.863ZM895.206,78.47c-4.223,9.109-8.154,18.776-4.93,27.734A38.279,38.279,0,0,0,895,114.533a54.969,54.969,0,0,1,3.72,5.982l-.675-9.884a.652.652,0,0,1,1.226-.349,34.219,34.219,0,0,1,2.821,6.709,37.692,37.692,0,0,0,1.739-4.057c3.212-8.874,2.954-18.435-.708-26.231C901.689,83.652,899.152,79.745,895.206,78.47Zm-49.239,1.244c-.074,7.015.207,14.968,5.243,19.871,2.69,2.621,6.406,3.965,10,5.264,1.011.366,2.022.732,3.012,1.124a25.234,25.234,0,0,1,6.053,3.328q-2.619-4.769-5.677-9.239a.652.652,0,0,1,1.018-.809,40.549,40.549,0,0,1,5.092,6.869c-1.582-4.177-3.307-8.361-5.084-12.564-1.471-3.477-3.3-7.807-6.688-10.376C855.4,80.5,850.782,80.011,845.967,79.714Z" transform="translate(-792.441 -77.171)" fill="#1a171b"/>
  </g>
</svg>
