<svg xmlns="http://www.w3.org/2000/svg" width="92.347" height="91.204" viewBox="0 0 92.347 91.204">
  <g id="Grouped_Clean_and_Pure_icon" data-name="Grouped Clean and Pure icon" transform="translate(-810.495 -154.577)">
    <path id="Path_76" data-name="Path 76" d="M812.96,208.406c4.886,7.451,13.816,9.677,20.456,15.041,6.546,5.29,11.453,11.591,22.238,11.968,9.154.322,17.56-3.99,24.876-9.075,9.085-6.314,15.526-11.078,19.36-17.925a20.028,20.028,0,0,0,2.787-7.294,18.1,18.1,0,0,0-2.1-11.205c-4.657-8.141-14.583-6.475-23.77-6.251-46.448,1.127-51.327.451-58.2,4.385C811.007,192.4,807.92,200.723,812.96,208.406Z" fill="#fcf5f1"/>
    <g id="Clean_and_Pure_Icon" data-name="Clean and Pure Icon">
      <g id="Group_13" data-name="Group 13">
        <path id="Path_49" data-name="Path 49" d="M873.022,191.2a41.012,41.012,0,0,0-10.776,14.75" fill="none" stroke="#000" stroke-linecap="round" stroke-linejoin="round" stroke-width="1"/>
        <path id="Path_50" data-name="Path 50" d="M858.966,218.331a44.553,44.553,0,0,1,3.28-12.383" fill="none" stroke="#000" stroke-linecap="round" stroke-linejoin="round" stroke-width="1"/>
        <path id="Path_51" data-name="Path 51" d="M873.026,191.2a27.062,27.062,0,0,1,.494,9.214" fill="none" stroke="#000" stroke-linecap="round" stroke-linejoin="round" stroke-width="1"/>
        <path id="Path_52" data-name="Path 52" d="M869.835,179.065a98.44,98.44,0,0,0-4.361-10.337" fill="none" stroke="#000" stroke-linecap="round" stroke-linejoin="round" stroke-width="1"/>
        <path id="Path_53" data-name="Path 53" d="M865.475,168.728a103.39,103.39,0,0,0-7.809-13.456" fill="none" stroke="#000" stroke-linecap="round" stroke-linejoin="round" stroke-width="1"/>
        <path id="Path_54" data-name="Path 54" d="M858.966,218.331c.286.118.445.177.445.177,9.28-4.938,13.229-11.38,14.106-18.1" fill="none" stroke="#000" stroke-linecap="round" stroke-linejoin="round" stroke-width="1"/>
        <path id="Path_55" data-name="Path 55" d="M869.835,179.065a71.174,71.174,0,0,1,3.187,12.132" fill="none" stroke="#000" stroke-linecap="round" stroke-linejoin="round" stroke-width="1"/>
        <g id="Group_11" data-name="Group 11">
          <path id="Path_56" data-name="Path 56" d="M885.1,183.52a49.208,49.208,0,0,0-12.075,7.677" fill="none" stroke="#000" stroke-linecap="round" stroke-linejoin="round" stroke-width="1"/>
          <path id="Path_57" data-name="Path 57" d="M858.966,218.331c-.593,5.078-1.3,8.518-1.3,8.518,36.08-1.165,36.078-46.554,36.078-46.554a64.18,64.18,0,0,0-8.648,3.225" fill="none" stroke="#000" stroke-linecap="round" stroke-linejoin="round" stroke-width="1"/>
        </g>
        <path id="Path_58" data-name="Path 58" d="M842.315,191.2a41.022,41.022,0,0,1,10.775,14.75" fill="none" stroke="#000" stroke-linecap="round" stroke-linejoin="round" stroke-width="1"/>
        <path id="Path_59" data-name="Path 59" d="M856.37,218.331a44.553,44.553,0,0,0-3.28-12.383" fill="none" stroke="#000" stroke-linecap="round" stroke-linejoin="round" stroke-width="1"/>
        <path id="Path_60" data-name="Path 60" d="M842.314,191.2a27.061,27.061,0,0,0-.5,9.214" fill="none" stroke="#000" stroke-linecap="round" stroke-linejoin="round" stroke-width="1"/>
        <path id="Path_61" data-name="Path 61" d="M845.5,179.065a98.22,98.22,0,0,1,4.361-10.337" fill="none" stroke="#000" stroke-linecap="round" stroke-linejoin="round" stroke-width="1"/>
        <path id="Path_62" data-name="Path 62" d="M849.862,168.728a103.384,103.384,0,0,1,7.808-13.456" fill="none" stroke="#000" stroke-linecap="round" stroke-linejoin="round" stroke-width="1"/>
        <path id="Path_63" data-name="Path 63" d="M856.373,218.331c-.286.118-.445.177-.445.177-9.28-4.938-13.229-11.38-14.107-18.1" fill="none" stroke="#000" stroke-linecap="round" stroke-linejoin="round" stroke-width="1"/>
        <path id="Path_64" data-name="Path 64" d="M845.5,179.065a70.99,70.99,0,0,0-3.186,12.132" fill="none" stroke="#000" stroke-linecap="round" stroke-linejoin="round" stroke-width="1"/>
        <g id="Group_12" data-name="Group 12">
          <path id="Path_65" data-name="Path 65" d="M830.236,183.52a49.234,49.234,0,0,1,12.076,7.677" fill="none" stroke="#000" stroke-linecap="round" stroke-linejoin="round" stroke-width="1"/>
          <path id="Path_66" data-name="Path 66" d="M856.37,218.331c.592,5.078,1.3,8.518,1.3,8.518-36.079-1.165-36.077-46.554-36.077-46.554a64.171,64.171,0,0,1,8.647,3.225" fill="none" stroke="#000" stroke-linecap="round" stroke-linejoin="round" stroke-width="1"/>
        </g>
      </g>
      <g id="Group_14" data-name="Group 14">
        <path id="Path_67" data-name="Path 67" d="M864.478,187.7h.008l-.047-.12c-.05-.139-.1-.275-.16-.41l-6.925-16.533-6.873,16.485v.015a9.1,9.1,0,0,0-.713,3.544c0,4.643,3.41,8.4,7.609,8.4s7.6-3.769,7.6-8.411A9.175,9.175,0,0,0,864.478,187.7Z" fill="none" stroke="#000" stroke-linecap="round" stroke-linejoin="round" stroke-width="1"/>
        <path id="Path_68" data-name="Path 68" d="M859.721,182.145s5.092,12-1.884,14.285" fill="none" stroke="#000" stroke-linecap="round" stroke-linejoin="round" stroke-width="1"/>
        <line id="Line_21" data-name="Line 21" y1="4.501" x2="1.824" transform="translate(855.541 177.212)" fill="none" stroke="#000" stroke-linecap="round" stroke-linejoin="round" stroke-width="1"/>
      </g>
      <g id="Group_15" data-name="Group 15">
        <path id="Path_69" data-name="Path 69" d="M884.885,229.282q1.691-.78,3.348-1.67" fill="none" stroke="#000" stroke-linecap="round" stroke-linejoin="round" stroke-width="1"/>
        <path id="Path_70" data-name="Path 70" d="M835.666,231.382a65.4,65.4,0,0,0,45.8-.64" fill="none" stroke="#000" stroke-linecap="round" stroke-linejoin="round" stroke-width="1"/>
        <path id="Path_71" data-name="Path 71" d="M827.106,227.613q2.056,1.105,4.167,2.032" fill="none" stroke="#000" stroke-linecap="round" stroke-linejoin="round" stroke-width="1"/>
        <path id="Path_72" data-name="Path 72" d="M873.411,243.434a63.122,63.122,0,0,0,9.985-3.327" fill="none" stroke="#000" stroke-linecap="round" stroke-linejoin="round" stroke-width="1"/>
        <path id="Path_73" data-name="Path 73" d="M846.266,244.282a67.716,67.716,0,0,0,24.087-.184" fill="none" stroke="#000" stroke-linecap="round" stroke-linejoin="round" stroke-width="1"/>
        <path id="Path_74" data-name="Path 74" d="M831.952,240.1a63.426,63.426,0,0,0,11.279,3.588" fill="none" stroke="#000" stroke-linecap="round" stroke-linejoin="round" stroke-width="1"/>
      </g>
    </g>
  </g>
</svg>
