<svg xmlns="http://www.w3.org/2000/svg" width="91.483" height="88.517" viewBox="0 0 91.483 88.517">
  <g id="Grouped_Organics_icon" data-name="Grouped Organics icon" transform="translate(-351.17 -158.896)">
    <path id="Path_230" data-name="Path 230" d="M432.529,166.687c-19.419-18.756-59.318-.193-74.2,19.29a33.478,33.478,0,0,0-7.157,20.333c0,7.7,2.721,15.143,6.381,21.829,9.149,16.707,18.431,23.435,38.31,16.675a120.657,120.657,0,0,0,20.772-9.8c6.682-3.825,13.031-8.232,17.364-13.542C445.358,207.547,446.2,179.9,432.529,166.687Z" fill="#fcf5f1"/>
    <g id="Organics_icon" data-name="Organics icon">
      <g id="Group_63" data-name="Group 63">
        <g id="Group_62" data-name="Group 62">
          <path id="Path_282" data-name="Path 282" d="M372.9,220.354c-4.562-2.09-10.009-7-16.334-16.609a65.75,65.75,0,0,1,16.608-5.4" fill="none" stroke="#000" stroke-linecap="round" stroke-linejoin="round" stroke-width="1"/>
        </g>
      </g>
      <g id="Group_65" data-name="Group 65">
        <g id="Group_64" data-name="Group 64">
          <path id="Path_283" data-name="Path 283" d="M425.455,188.03c.145-5-1.755-12-7.282-21.828A66.3,66.3,0,0,0,406,178.152" fill="none" stroke="#000" stroke-linecap="round" stroke-linejoin="round" stroke-width="1"/>
        </g>
      </g>
      <g id="Group_67" data-name="Group 67">
        <g id="Group_66" data-name="Group 66">
          <path id="Path_284" data-name="Path 284" d="M410.944,191.477c.525-9.573-6.941-21.2-38.908-29.41,0,0-6.693,38.156,9.684,47.282" fill="none" stroke="#000" stroke-linecap="round" stroke-linejoin="round" stroke-width="1"/>
        </g>
        <path id="Path_285" data-name="Path 285" d="M401.9,208.574c-2.344-3.033-2.957-3.971-5.123-7.051a196.493,196.493,0,0,1-15.853-26.648" fill="none" stroke="#000" stroke-linecap="round" stroke-linejoin="round" stroke-width="1"/>
        <path id="Path_286" data-name="Path 286" d="M385.628,183.478a5.127,5.127,0,0,1,.248-4.687,6.068,6.068,0,0,1,4.07-2.875" fill="none" stroke="#000" stroke-linecap="round" stroke-linejoin="round" stroke-width="1"/>
        <path id="Path_287" data-name="Path 287" d="M394.06,197.57a8.456,8.456,0,0,1,.085-6.094,6.074,6.074,0,0,1,4.07-2.874" fill="none" stroke="#000" stroke-linecap="round" stroke-linejoin="round" stroke-width="1"/>
        <path id="Path_288" data-name="Path 288" d="M389.634,190.681a5.346,5.346,0,0,0-4.407-2.052,6.766,6.766,0,0,0-4.806,2.2" fill="none" stroke="#000" stroke-linecap="round" stroke-linejoin="round" stroke-width="1"/>
      </g>
      <g id="Group_69" data-name="Group 69">
        <g id="Group_68" data-name="Group 68">
          <path id="Path_289" data-name="Path 289" d="M440.249,188.249s-46.915-4.873-36.468,23.258C403.781,211.507,424.891,234.178,440.249,188.249Z" fill="none" stroke="#000" stroke-linecap="round" stroke-linejoin="round" stroke-width="1"/>
        </g>
        <path id="Path_290" data-name="Path 290" d="M403.781,211.507c2.4-1.8,3.132-2.273,5.556-3.946a177.578,177.578,0,0,1,20.835-12.434" fill="none" stroke="#000" stroke-linecap="round" stroke-linejoin="round" stroke-width="1"/>
        <path id="Path_291" data-name="Path 291" d="M423.467,198.844a4.066,4.066,0,0,1,3.524-.043,3.626,3.626,0,0,1,1.979,2.743" fill="none" stroke="#000" stroke-linecap="round" stroke-linejoin="round" stroke-width="1"/>
        <path id="Path_292" data-name="Path 292" d="M412.446,205.458a6.8,6.8,0,0,1,4.595-.224,3.628,3.628,0,0,1,1.98,2.743" fill="none" stroke="#000" stroke-linecap="round" stroke-linejoin="round" stroke-width="1"/>
        <path id="Path_293" data-name="Path 293" d="M417.85,202.009A4.258,4.258,0,0,0,419.6,198.8a4.052,4.052,0,0,0-1.434-3.293" fill="none" stroke="#000" stroke-linecap="round" stroke-linejoin="round" stroke-width="1"/>
      </g>
      <g id="Group_71" data-name="Group 71">
        <g id="Group_70" data-name="Group 70">
          <path id="Path_294" data-name="Path 294" d="M366.141,233.414s17.425-44.085,37.64-21.906C403.781,211.511,414,240.818,366.141,233.414Z" fill="none" stroke="#000" stroke-linecap="round" stroke-linejoin="round" stroke-width="1"/>
        </g>
        <path id="Path_295" data-name="Path 295" d="M403.78,211.507c-2.7,1.306-3.71,1.9-6.307,3.284a177.251,177.251,0,0,0-20.6,12.821" fill="none" stroke="#000" stroke-linecap="round" stroke-linejoin="round" stroke-width="1"/>
        <path id="Path_296" data-name="Path 296" d="M383.251,223.355a4.058,4.058,0,0,0-1.653,3.111,3.621,3.621,0,0,0,1.53,3.017" fill="none" stroke="#000" stroke-linecap="round" stroke-linejoin="round" stroke-width="1"/>
        <path id="Path_297" data-name="Path 297" d="M394.178,216.592a6.8,6.8,0,0,0-2.3,3.981,3.62,3.62,0,0,0,1.529,3.017" fill="none" stroke="#000" stroke-linecap="round" stroke-linejoin="round" stroke-width="1"/>
        <path id="Path_298" data-name="Path 298" d="M388.639,219.809a4.259,4.259,0,0,1-3.655.087,4.057,4.057,0,0,1-2.27-2.783" fill="none" stroke="#000" stroke-linecap="round" stroke-linejoin="round" stroke-width="1"/>
      </g>
      <path id="Path_299" data-name="Path 299" d="M403.612,211.053a53.434,53.434,0,0,0,25.883,26.014" fill="none" stroke="#000" stroke-linecap="round" stroke-linejoin="round" stroke-width="1"/>
      <path id="Path_280" data-name="Path 280" d="M372.885,221.183c-4.644-2.372-10.1-7.627-16.323-17.615a69.061,69.061,0,0,1,17.045-5.147l.308.031c2.037,5.923,5.523,9.322,9.4,11.181l.152.128c-4,2.909-7.545,7.256-10.4,11.518Z" fill="none"/>
      <path id="Path_281" data-name="Path 281" d="M426.7,187.9c.153-5.213-1.831-12.527-7.6-22.782a69.094,69.094,0,0,0-12.707,12.473l-.122.288c4.215,4.633,5.521,9.325,5.284,13.62l.04.194c4.474-2.11,9.99-3.128,15.1-3.58Z" fill="none"/>
    </g>
  </g>
</svg>
