<svg xmlns="http://www.w3.org/2000/svg" width="97.641" height="90.524" viewBox="0 0 97.641 90.524">
  <g id="Grouped_Vegan_Icon" data-name="Grouped Vegan Icon" transform="translate(-502.879 -153.835)">
    <path id="Path_16" data-name="Path 16" d="M589.335,189.866c-2.722-10.917-8.661-22.4-19.412-27.171-14.62-6.5-29.232.8-32.974,2.7a43.238,43.238,0,0,0-16.087,14.09c-.926,1.379-10.172,16.049-6.189,32.873,5.239,22.127,27.73,37.1,50.051,30.375C587.432,235.888,594.612,211.023,589.335,189.866Z" fill="#fcf5f1"/>
    <g id="Vegan_Icon" data-name="Vegan Icon">
      <g id="Group_42" data-name="Group 42">
        <g id="Group_41" data-name="Group 41">
          <path id="Path_201" data-name="Path 201" d="M526.09,161.762a48.865,48.865,0,0,0-12.613,11.455" fill="none" stroke="#000" stroke-linecap="round" stroke-linejoin="round" stroke-width="1"/>
          <path id="Path_202" data-name="Path 202" d="M537.572,156.493a48.568,48.568,0,0,0-6.243,2.41" fill="none" stroke="#000" stroke-linecap="round" stroke-linejoin="round" stroke-width="1"/>
          <path id="Path_203" data-name="Path 203" d="M598.829,213.794c4.81-21.938-6.118-45.5-26.671-54.99a48.818,48.818,0,0,0-27.277-3.952" fill="none" stroke="#000" stroke-linecap="round" stroke-linejoin="round" stroke-width="1"/>
          <path id="Path_204" data-name="Path 204" d="M595.242,224.2a47.364,47.364,0,0,0,2.953-7.874" fill="none" stroke="#000" stroke-linecap="round" stroke-linejoin="round" stroke-width="1"/>
          <path id="Path_205" data-name="Path 205" d="M589,233.913q.953-1.142,1.831-2.343" fill="none" stroke="#000" stroke-linecap="round" stroke-linejoin="round" stroke-width="1"/>
          <path id="Path_206" data-name="Path 206" d="M508.515,224.52a48.813,48.813,0,0,0,15.007,17.61" fill="none" stroke="#000" stroke-linecap="round" stroke-linejoin="round" stroke-width="1"/>
          <path id="Path_207" data-name="Path 207" d="M513.477,173.215a48.507,48.507,0,0,0-4.962,51.305" fill="none" stroke="#000" stroke-linecap="round" stroke-linejoin="round" stroke-width="1"/>
          <path id="Path_208" data-name="Path 208" d="M513.191,193.795a40.007,40.007,0,0,0,1.847,23.877" fill="none" stroke="#000" stroke-linecap="round" stroke-linejoin="round" stroke-width="1"/>
          <path id="Path_209" data-name="Path 209" d="M578.292,173.217c-19.046-17.026-49.873-11.3-61.648,11.253" fill="none" stroke="#000" stroke-linecap="round" stroke-linejoin="round" stroke-width="1"/>
          <path id="Path_210" data-name="Path 210" d="M580.723,230.04a39.663,39.663,0,0,0-1.615-56.069q-.4-.381-.819-.751" fill="none" stroke="#000" stroke-linecap="round" stroke-linejoin="round" stroke-width="1"/>
          <path id="Path_211" data-name="Path 211" d="M515.038,217.672a39.749,39.749,0,0,0,9.246,13.692" fill="none" stroke="#000" stroke-linecap="round" stroke-linejoin="round" stroke-width="1"/>
        </g>
      </g>
      <g id="Group_43" data-name="Group 43">
        <path id="Path_214" data-name="Path 214" d="M548.763,195.03a6.041,6.041,0,0,1-.241-5.493c1.68-3.652,5.6-6,8.88-8.049,4.048-2.53,8.42-4.754,13.156-5.358L567.911,193.9c-.31,2.079-.722,4.349-2.329,5.7-2.1,1.78-4.783,1.161-7.288,1.351-2.082.158-4.918,1.77-6.419-.451A44.207,44.207,0,0,1,548.763,195.03Z" fill="none" stroke="#000" stroke-linecap="round" stroke-linejoin="round" stroke-width="1"/>
        <path id="Path_212" data-name="Path 212" d="M566.257,181.968A31.257,31.257,0,0,0,554.649,197.3a54.145,54.145,0,0,0-2.938,19.226,40.276,40.276,0,0,0,.344,5.477,26.676,26.676,0,0,0,6.014,13.37" fill="none" stroke="#000" stroke-linecap="round" stroke-linejoin="round" stroke-width="1"/>
        <path id="Path_215" data-name="Path 215" d="M545.633,203.044a6.174,6.174,0,0,0-5.2-2.993,11.582,11.582,0,0,0-3.169.572q-5.795,1.644-11.419,3.828c-.069.025,1.813,2.815,1.979,3.068a21.443,21.443,0,0,0,7.375,6.212c2.907,1.424,6.275,2.39,8.716-.4C545.843,211.125,547.2,205.712,545.633,203.044Z" fill="none" stroke="#000" stroke-linecap="round" stroke-linejoin="round" stroke-width="1"/>
        <path id="Path_213" data-name="Path 213" d="M535.556,206.154a7.332,7.332,0,0,1,5.519.312,14.405,14.405,0,0,1,4.507,3.388,28.284,28.284,0,0,1,6.751,11.956" fill="none" stroke="#000" stroke-linecap="round" stroke-linejoin="round" stroke-width="1"/>
      </g>
    </g>
  </g>
</svg>
