<svg xmlns="http://www.w3.org/2000/svg" width="91.311" height="91.098" viewBox="0 0 91.311 91.098">
  <g id="Grouped_Trust_and_Love_icon" data-name="Grouped Trust and Love icon" transform="translate(-944.113 -155.752)">
    <path id="Path_40" data-name="Path 40" d="M1023.742,195.608c1.021-6.639,2.56-8.394,3.152-14.939.433-4.8-1.662-9.791-6.126-12-10.144-5.027-20,3.329-25.912,5.836-5.712,2.422-9.684,1.177-14.27-.125-6.119-1.736-8.594-4.982-13.853-4.263-.841.115-4.847.754-7.24,3.879-2.449,3.2-1.839,7.208-1.595,10.338.126,1.631,1.166,16.817-4.836,28.541-1.836,3.587-4.963,8.083-6.338,15.274a10.155,10.155,0,0,0-.035,4.891c1.619,5.873,9.139,8.418,10.693,8.629a44.817,44.817,0,0,0,16.927-.973c8.121-2.044,9.267-4.332,15.2-5.385a31.711,31.711,0,0,1,16.5,1.761c1.905.559,12.823,3.6,19.539-2.471a14.054,14.054,0,0,0,3.24-4.493C1033.841,219.156,1021.433,210.621,1023.742,195.608Z" fill="#fcf5f1"/>
    <g id="Trust_Love_Icon" data-name="Trust &amp; Love Icon">
      <line id="Line_18" data-name="Line 18" x2="3.404" y2="4.334" transform="translate(964.882 162.783)" fill="none" stroke="#000" stroke-linecap="round" stroke-linejoin="round" stroke-width="1"/>
      <line id="Line_19" data-name="Line 19" x1="3.404" y2="4.334" transform="translate(1010.871 162.783)" fill="none" stroke="#000" stroke-linecap="round" stroke-linejoin="round" stroke-width="1"/>
      <line id="Line_20" data-name="Line 20" x2="0.297" y2="7.304" transform="translate(989.604 156.272)" fill="none" stroke="#000" stroke-linecap="round" stroke-linejoin="round" stroke-width="1"/>
      <path id="Path_47" data-name="Path 47" d="M993.848,196.566" fill="none" stroke="#000" stroke-linecap="round" stroke-linejoin="round" stroke-width="1"/>
      <path id="Path_48" data-name="Path 48" d="M971.224,178.074a9.091,9.091,0,0,1,8.935-9.244c.087,0,.175,0,.262,0,4.61-.011,8.077,3.437,9.232,4.586,1.15-1.155,4.6-4.622,9.209-4.633,6.914-.019,9.233,4.585,9.245,9.2.025,9.22-16.078,21.941-18.381,23.1-2.308-1.146-18.478-13.783-18.5-23" fill="none" stroke="#000" stroke-width="1"/>
      <g id="Group_45" data-name="Group 45">
        <path id="Path_216" data-name="Path 216" d="M1025.936,205.765c.439-.957.79-2,1.195-3.039,1.188-3.05,3.169-5.34,3.324-8.8.115-2.555-.389-5.3-.2-7.9" fill="none" stroke="#000" stroke-linecap="round" stroke-linejoin="round" stroke-width="1"/>
        <path id="Path_217" data-name="Path 217" d="M1006.657,215.337a9.441,9.441,0,0,1,1.559-3.854,16.18,16.18,0,0,0,2.78-6.86,19.517,19.517,0,0,0,.5-5.659c-.1-.929-.365-2.676-1.043-3.39-1.5-1.578-1.452,0-1.958,1.5a62.732,62.732,0,0,1-3.1,7.323c-1.687,3.475-3.686,6.773-5.464,10.2a54.885,54.885,0,0,0-4.09,10.566c-1.526,5.386.311,10.4,1.049,15.8" fill="none" stroke="#000" stroke-linecap="round" stroke-linejoin="round" stroke-width="1"/>
        <path id="Path_218" data-name="Path 218" d="M1006.658,215.338c-.015.092-.033.182-.044.274-.531,3.87,4.687-.114,5.745-.886,3.249-2.364,5.8-4.066,9.68-5.243a6.116,6.116,0,0,0,3.9-3.718" fill="none" stroke="#000" stroke-linecap="round" stroke-linejoin="round" stroke-width="1"/>
        <path id="Path_219" data-name="Path 219" d="M1030.25,186.021a11.053,11.053,0,0,1,.4-2.361c.216-.735,1.148-3.1,2.142-2.909.882.166,1.077,2.117,1.237,2.749a17.828,17.828,0,0,1,.627,3.907c.071,2.8.258,5.583.267,8.391.013,3.93-1.571,8.149-2.481,11.927-.718,2.979-1.5,6.087-3.56,8.3l-12.218,13.118c-2.532,2.716-5.179,5.683-5.6,9.451a18.22,18.22,0,0,0,.044,3.927c.128,1.227.143,2.558.349,3.754" fill="none" stroke="#000" stroke-linecap="round" stroke-linejoin="round" stroke-width="1"/>
        <path id="Path_220" data-name="Path 220" d="M1026.608,188.3a17,17,0,0,1,1.355,3.123c.744,2.614-.408,4.674-1.655,6.633a23.727,23.727,0,0,0-2.781,6.805" fill="none" stroke="#000" stroke-linecap="round" stroke-linejoin="round" stroke-width="1"/>
        <path id="Path_221" data-name="Path 221" d="M1026.608,188.3a20.748,20.748,0,0,1-1.633-3.634c-.3-1.029-1.424-5.835.273-6.077,1.082-.154,2.566,3.249,3.032,4.032q1,1.69,1.971,3.4" fill="none" stroke="#000" stroke-linecap="round" stroke-linejoin="round" stroke-width="1"/>
        <path id="Path_222" data-name="Path 222" d="M1022.524,196.34c-.649-.876-1.376-1.7-2.1-2.519-.693-.779-1.379-1.558-2.038-2.37-.382-.469-.7-1.255-1.286-1.516-1.071-.483-.862.926-.827,1.655a11.184,11.184,0,0,0,2.114,5.761,2.446,2.446,0,0,1,.5.974,2.191,2.191,0,0,1-.09.821,17.892,17.892,0,0,0-.365,5.836" fill="none" stroke="#000" stroke-linecap="round" stroke-linejoin="round" stroke-width="1"/>
        <path id="Path_223" data-name="Path 223" d="M1026.608,188.3q-.762-.937-1.511-1.883-.99-1.259-1.956-2.532c-.517-.682-1.585-3.161-2.295-1.753-.687,1.358-.312,3.4.174,4.818a55.339,55.339,0,0,0,2.56,5.35,1.483,1.483,0,0,1-.039,1.705,19.6,19.6,0,0,0-1.017,2.343" fill="none" stroke="#000" stroke-linecap="round" stroke-linejoin="round" stroke-width="1"/>
        <path id="Path_224" data-name="Path 224" d="M1020.764,204.525a38.531,38.531,0,0,1,1.761-8.181" fill="none" stroke="#000" stroke-linecap="round" stroke-linejoin="round" stroke-width="1"/>
        <path id="Path_225" data-name="Path 225" d="M1020.764,204.525a8.511,8.511,0,0,1,1.885.133c.292.054.584.125.876.2" fill="none" stroke="#000" stroke-linecap="round" stroke-linejoin="round" stroke-width="1"/>
        <path id="Path_226" data-name="Path 226" d="M1025.936,205.765a14.509,14.509,0,0,0-2.413-.9" fill="none" stroke="#000" stroke-linecap="round" stroke-linejoin="round" stroke-width="1"/>
        <path id="Path_227" data-name="Path 227" d="M1020.764,204.524a7.836,7.836,0,0,0-2.332.457" fill="none" stroke="#000" stroke-linecap="round" stroke-linejoin="round" stroke-width="1"/>
        <path id="Path_228" data-name="Path 228" d="M1006.658,215.338a25.113,25.113,0,0,0,3.627-3.253c2.4-2.62,4.806-5.9,8.147-7.1" fill="none" stroke="#000" stroke-linecap="round" stroke-linejoin="round" stroke-width="1"/>
      </g>
      <g id="Group_46" data-name="Group 46">
        <path id="Path_216-2" data-name="Path 216-2" d="M953.6,205.766c-.439-.957-.791-2-1.2-3.039-1.188-3.05-3.169-5.34-3.324-8.8-.115-2.555.389-5.3.205-7.9" fill="none" stroke="#000" stroke-linecap="round" stroke-linejoin="round" stroke-width="1"/>
        <path id="Path_217-2" data-name="Path 217-2" d="M972.875,215.338a9.453,9.453,0,0,0-1.558-3.854,16.168,16.168,0,0,1-2.781-6.86,19.519,19.519,0,0,1-.5-5.659c.1-.929.365-2.676,1.043-3.39,1.5-1.579,1.452,0,1.958,1.5a62.879,62.879,0,0,0,3.1,7.323c1.688,3.475,3.686,6.773,5.464,10.2a54.905,54.905,0,0,1,4.09,10.565c1.526,5.387-.31,10.406-1.049,15.8" fill="none" stroke="#000" stroke-linecap="round" stroke-linejoin="round" stroke-width="1"/>
        <path id="Path_218-2" data-name="Path 218-2" d="M972.882,215.338c.015.092.033.182.044.274.531,3.87-4.687-.114-5.745-.886-3.249-2.364-5.8-4.066-9.68-5.243a6.116,6.116,0,0,1-3.9-3.718" fill="none" stroke="#000" stroke-linecap="round" stroke-linejoin="round" stroke-width="1"/>
        <path id="Path_219-2" data-name="Path 219-2" d="M949.287,186.022a11.115,11.115,0,0,0-.4-2.361c-.216-.735-1.148-3.1-2.142-2.909-.882.166-1.077,2.117-1.237,2.749a17.828,17.828,0,0,0-.627,3.907c-.072,2.8-.259,5.582-.267,8.391-.013,3.93,1.571,8.149,2.481,11.927.718,2.979,1.5,6.087,3.56,8.3l12.218,13.118c2.532,2.716,5.179,5.683,5.6,9.451a18.216,18.216,0,0,1-.044,3.927c-.128,1.227-.143,2.558-.349,3.754" fill="none" stroke="#000" stroke-linecap="round" stroke-linejoin="round" stroke-width="1"/>
        <path id="Path_220-2" data-name="Path 220-2" d="M952.929,188.3a16.991,16.991,0,0,0-1.355,3.123c-.744,2.614.408,4.674,1.655,6.633a23.728,23.728,0,0,1,2.781,6.8" fill="none" stroke="#000" stroke-linecap="round" stroke-linejoin="round" stroke-width="1"/>
        <path id="Path_221-2" data-name="Path 221-2" d="M952.929,188.3a20.829,20.829,0,0,0,1.634-3.634c.3-1.029,1.423-5.835-.274-6.077-1.082-.154-2.566,3.249-3.032,4.032q-1,1.69-1.971,3.4" fill="none" stroke="#000" stroke-linecap="round" stroke-linejoin="round" stroke-width="1"/>
        <path id="Path_222-2" data-name="Path 222-2" d="M957.012,196.341c.649-.877,1.376-1.705,2.1-2.52.693-.779,1.379-1.558,2.038-2.37.382-.469.7-1.255,1.286-1.516,1.071-.482.862.926.827,1.655a11.184,11.184,0,0,1-2.114,5.761,2.446,2.446,0,0,0-.5.974,2.191,2.191,0,0,0,.09.821,17.892,17.892,0,0,1,.365,5.836" fill="none" stroke="#000" stroke-linecap="round" stroke-linejoin="round" stroke-width="1"/>
        <path id="Path_223-2" data-name="Path 223-2" d="M952.929,188.3q.762-.937,1.511-1.883.99-1.259,1.956-2.532c.517-.682,1.585-3.161,2.295-1.753.687,1.358.312,3.4-.174,4.818a55.339,55.339,0,0,1-2.56,5.35,1.481,1.481,0,0,0,.039,1.705,19.758,19.758,0,0,1,1.017,2.343" fill="none" stroke="#000" stroke-linecap="round" stroke-linejoin="round" stroke-width="1"/>
        <path id="Path_224-2" data-name="Path 224-2" d="M958.774,204.525a38.527,38.527,0,0,0-1.761-8.181" fill="none" stroke="#000" stroke-linecap="round" stroke-linejoin="round" stroke-width="1"/>
        <path id="Path_225-2" data-name="Path 225-2" d="M958.773,204.525a8.511,8.511,0,0,0-1.885.133c-.292.054-.584.125-.876.2" fill="none" stroke="#000" stroke-linecap="round" stroke-linejoin="round" stroke-width="1"/>
        <path id="Path_226-2" data-name="Path 226-2" d="M953.6,205.766a14.507,14.507,0,0,1,2.413-.9" fill="none" stroke="#000" stroke-linecap="round" stroke-linejoin="round" stroke-width="1"/>
        <path id="Path_227-2" data-name="Path 227-2" d="M958.773,204.524a7.836,7.836,0,0,1,2.332.457" fill="none" stroke="#000" stroke-linecap="round" stroke-linejoin="round" stroke-width="1"/>
        <path id="Path_228-2" data-name="Path 228-2" d="M972.88,215.338a25.113,25.113,0,0,1-3.627-3.253c-2.4-2.62-4.806-5.9-8.147-7.1" fill="none" stroke="#000" stroke-linecap="round" stroke-linejoin="round" stroke-width="1"/>
      </g>
    </g>
  </g>
</svg>
