<svg xmlns="http://www.w3.org/2000/svg" width="97.5" height="92.523" viewBox="0 0 97.5 92.523">
  <g id="Grouped_PETA_icon" data-name="Grouped PETA icon" transform="translate(-673.187 -154.524)">
    <path id="Path_29" data-name="Path 29" d="M700.981,246.881c15.518,3.723,23.762,5.7,32.571,4.055,22.158-4.138,44.579-30.572,39.374-53.276-2.587-11.277-12.322-23.087-23.244-24.567-6.275-.849-8.533,2.309-23.958,6.759-16.109,4.647-17.7,2.372-24.269,5.307-19.551,8.725-31.5,40.43-21.868,53.252C682.641,242.483,688.755,243.95,700.981,246.881Z" transform="translate(-3 -4.474)" fill="#fcf5f1"/>
    <g id="PETA_Icon" data-name="PETA Icon">
      <g id="Group_6" data-name="Group 6">
        <g id="image">
          <path id="Path_17" data-name="Path 17" d="M740.481,203.575s3.3,1.969,4.268-.7" fill="none" stroke="#000" stroke-linecap="round" stroke-linejoin="round" stroke-width="1.046"/>
          <path id="Path_18" data-name="Path 18" d="M714.549,195.216c-18.021-.98-26.8,8.445-26.8,22.621,0,8.138,7.794,16.554,15.311,16.554h15.425c6.221,0,5.626-6.977.241-6.977,0,0-8.955-.024-8.237-.227,6.184-1.735,8.446-7.163,3.167-16" fill="none" stroke="#000" stroke-linecap="round" stroke-linejoin="round" stroke-width="1.046"/>
          <path id="Path_19" data-name="Path 19" d="M716.8,198.144a11.456,11.456,0,0,1,.48-6.688" fill="none" stroke="#000" stroke-linecap="round" stroke-linejoin="round" stroke-width="1.046"/>
          <path id="Path_20" data-name="Path 20" d="M736.992,185.332c6.824,2.748,10.6,15.2,6.824,20.28-3.527,4.745-12.317,5.6-18.039,2.8-.366-.178-.721-.365-1.066-.556" fill="none" stroke="#000" stroke-linecap="round" stroke-linejoin="round" stroke-width="1.046"/>
          <path id="Path_21" data-name="Path 21" d="M716.119,188.931s-13.72-10.718-15.506-24.342c0,0,19.294,3.448,24.369,18.186" fill="none" stroke="#000" stroke-linecap="round" stroke-linejoin="round" stroke-width="1.046"/>
          <path id="Path_22" data-name="Path 22" d="M722.963,222.8l3.054,7.643a6.325,6.325,0,0,0,5.7,3.947h2.965a1.707,1.707,0,0,0,1.553-2.509l-3.319-7.587" fill="none" stroke="#000" stroke-linecap="round" stroke-linejoin="round" stroke-width="1.046"/>
          <path id="Path_23" data-name="Path 23" d="M739.184,234.392h2.966a1.71,1.71,0,0,0,1.751-1.669h0a1.716,1.716,0,0,0-.2-.84l-3.32-7.587" fill="none" stroke="#000" stroke-linecap="round" stroke-linejoin="round" stroke-width="1.046"/>
          <path id="Path_24" data-name="Path 24" d="M741.312,211.183a11.031,11.031,0,0,1-.2,9.972" fill="none" stroke="#000" stroke-linecap="round" stroke-linejoin="round" stroke-width="1.046"/>
          <path id="Path_25" data-name="Path 25" d="M720.215,186.844s-2.274-9.593-13.953-16.7" fill="none" stroke="#000" stroke-linecap="round" stroke-linejoin="round" stroke-width="1.046"/>
          <path id="Path_26" data-name="Path 26" d="M723.462,176.285c-.894-6.421-1.1-14.715,1.933-21.238,0,0,14.44,13.256,10.818,28.417" fill="none" stroke="#000" stroke-linecap="round" stroke-linejoin="round" stroke-width="1.046"/>
          <path id="Path_27" data-name="Path 27" d="M685.743,209.382a7.238,7.238,0,0,1-3.945-9.447h0a7.24,7.24,0,0,1,11.822-2.362" fill="none" stroke="#000" stroke-linecap="round" stroke-linejoin="round" stroke-width="1.046"/>
          <path id="Path_28" data-name="Path 28" d="M748.207,180.525a5.527,5.527,0,0,1,6.907-3.657l.153.05c2.667.863,4.02,3.51,4.471,4.4.882-.45,3.53-1.8,6.2-.94,4,1.29,4.466,4.4,3.607,7.06-1.725,5.334-13.434,9.648-14.988,9.882-1.118-1.1-8.078-11.453-6.352-16.787" fill="none" stroke="#000" stroke-width="0.999"/>
        </g>
      </g>
      <path id="Path_229" data-name="Path 229" d="M729.191,192.918a8.571,8.571,0,0,1,5.271,5.681" fill="none" stroke="#000" stroke-linecap="round" stroke-linejoin="round" stroke-width="1.046"/>
    </g>
  </g>
</svg>
