<svg xmlns="http://www.w3.org/2000/svg" width="82.919" height="91.042" viewBox="0 0 82.919 91.042">
  <g id="Grouped_Naturally_Preserved_Icon" data-name="Grouped Naturally Preserved Icon" transform="translate(-204.86 -152.738)">
    <path id="shape" d="M242.745,241.154c25.352.11,42.205-30.789,44.666-51.67.617-5.236,1.2-15.4-4.859-22.645-5.232-6.254-13.51-7.161-20.9-4.654-17.3,5.867-20.693,24.816-37.9,32.516-4.234,1.892-8.937,2.54-12.976,4.866-3.616,2.083-6.436,6.1-5.832,10.413C206.629,222.067,222.94,241.064,242.745,241.154Z" fill="#fcf5f1"/>
    <g id="Naturally_Preserved_icon" data-name="Naturally Preserved icon">
      <g id="Group_60" data-name="Group 60">
        <path id="Path_250" data-name="Path 250" d="M267.163,193.32c-.013.279-.027.556-.037.834" fill="none" stroke="#000" stroke-linecap="round" stroke-linejoin="round" stroke-width="1"/>
        <path id="Path_251" data-name="Path 251" d="M267.163,193.32c.073-1.512.194-3.021.4-4.521a18.041,18.041,0,0,0,.31-3.5c-.236-4.206-4-7.722-3.779-11.928a5.449,5.449,0,0,1,.943-3.177c1.29,3.1,3.3,5.844,5,8.744a15.071,15.071,0,0,1,2.344,6.762c.316,4.586-.263,9.285-.361,13.879-.079,3.712-.033,7.538-.92,11.159" fill="none" stroke="#000" stroke-linecap="round" stroke-linejoin="round" stroke-width="1"/>
        <path id="Path_252" data-name="Path 252" d="M271.105,210.736a18.965,18.965,0,0,1-.968,2.948,38.75,38.75,0,0,1-2.413,4.449c-.989,1.674-1.943,3.368-2.834,5.1a22.544,22.544,0,0,0-2.185,5.561c-1,4.727-.33,8.771.164,14.448" fill="none" stroke="#000" stroke-linecap="round" stroke-linejoin="round" stroke-width="1"/>
        <path id="Path_253" data-name="Path 253" d="M262.739,194.916a23.746,23.746,0,0,1-.192-5.877,5.093,5.093,0,0,1,.67-1.993" fill="none" stroke="#000" stroke-linecap="round" stroke-linejoin="round" stroke-width="1"/>
        <path id="Path_254" data-name="Path 254" d="M267.163,193.32l.207.844" fill="none" stroke="#000" stroke-linecap="round" stroke-linejoin="round" stroke-width="1"/>
        <path id="Path_255" data-name="Path 255" d="M262.738,194.916c.318,2.37.8,4.745,1.01,7.015a3.238,3.238,0,0,1-.272,2.081c-.765,1.177-2.475,1.994-3.507,2.937-3.873,3.538-6.27,9.208-6.963,14.328" fill="none" stroke="#000" stroke-linecap="round" stroke-linejoin="round" stroke-width="1"/>
        <path id="Path_256" data-name="Path 256" d="M271.1,210.74c-.014-.248-.029-.5-.054-.743a35.995,35.995,0,0,0-.888-4.719c-.869-3.706-1.862-7.406-2.793-11.11" fill="none" stroke="#000" stroke-linecap="round" stroke-linejoin="round" stroke-width="1"/>
        <path id="Path_257" data-name="Path 257" d="M267.16,193.32c-.663-2.672-1.287-5.347-1.8-8.03-.132-.695-1.7,1.065-1.781,1.181-.135.191-.256.382-.367.575" fill="none" stroke="#000" stroke-linecap="round" stroke-linejoin="round" stroke-width="1"/>
        <path id="Path_258" data-name="Path 258" d="M261.167,195.492a111.735,111.735,0,0,0-4.035-11.046,5.877,5.877,0,0,0-.868-1.552,6.031,6.031,0,0,0-1.448-1.113l-3.327-2.069a11.885,11.885,0,0,1-3.072-2.413,4.023,4.023,0,0,1-.9-3.654q4.729,2.307,9.319,4.887a8.256,8.256,0,0,1,4.589,4.616q.918,1.938,1.791,3.9" fill="none" stroke="#000" stroke-linecap="round" stroke-linejoin="round" stroke-width="1"/>
        <path id="Path_259" data-name="Path 259" d="M259.154,196.5l-2.835-8.773a8.24,8.24,0,0,0-.751-1.817,6.916,6.916,0,0,0-2.128-2.012c-1.765-1.186-3.6-2.089-5.448-3.083a37.773,37.773,0,0,1-4.345-2.308c.169.145.013,1.174.04,1.4a3.08,3.08,0,0,0,.725,1.822,15.993,15.993,0,0,0,4.472,3.463,7.779,7.779,0,0,1,2.83,1.9c.777,1.059,1.02,2.781,1.424,4.022l2.586,7.966" fill="none" stroke="#000" stroke-linecap="round" stroke-linejoin="round" stroke-width="1"/>
        <path id="Path_260" data-name="Path 260" d="M252.539,203.328l-1.592-2.98a24.186,24.186,0,0,0-2.993-4.69c-1.4-1.586-3.186-2.782-4.615-4.338s-2.507-3.7-1.994-5.744l3.217,2.707a33.688,33.688,0,0,0,4.067,3.088,12.494,12.494,0,0,1,2.337,1.59,9.068,9.068,0,0,1,1.281,1.746l3,4.857" fill="none" stroke="#000" stroke-linecap="round" stroke-linejoin="round" stroke-width="1"/>
        <path id="Path_261" data-name="Path 261" d="M267.377,194.163a3,3,0,0,1,2.2.88" fill="none" stroke="#000" stroke-linecap="round" stroke-linejoin="round" stroke-width="1"/>
        <path id="Path_262" data-name="Path 262" d="M259.156,196.5a17.77,17.77,0,0,1,2.009-1.007" fill="none" stroke="#000" stroke-linecap="round" stroke-linejoin="round" stroke-width="1"/>
        <path id="Path_263" data-name="Path 263" d="M259.158,196.5a17.694,17.694,0,0,0-3.426,2.586" fill="none" stroke="#000" stroke-linecap="round" stroke-linejoin="round" stroke-width="1"/>
        <path id="Path_264" data-name="Path 264" d="M267.374,194.163c-.082,0-.165-.01-.248-.01" fill="none" stroke="#000" stroke-linecap="round" stroke-linejoin="round" stroke-width="1"/>
        <path id="Path_265" data-name="Path 265" d="M255.731,199.081q-.246.236-.48.481" fill="none" stroke="#000" stroke-linecap="round" stroke-linejoin="round" stroke-width="1"/>
        <path id="Path_266" data-name="Path 266" d="M255.251,199.567c-.352.368-.691.749-1.008,1.147a17.955,17.955,0,0,0-1.7,2.617" fill="none" stroke="#000" stroke-linecap="round" stroke-linejoin="round" stroke-width="1"/>
        <path id="Path_267" data-name="Path 267" d="M248.7,242.932a48.729,48.729,0,0,0-1.37-9.194,49.125,49.125,0,0,1-1.507-6.725c-.65-6.3,1.312-12.5,4.046-18.063.931-1.891,1.684-3.808,2.674-5.62" fill="none" stroke="#000" stroke-linecap="round" stroke-linejoin="round" stroke-width="1"/>
        <path id="Path_268" data-name="Path 268" d="M261.167,195.493q.773-.325,1.573-.577" fill="none" stroke="#000" stroke-linecap="round" stroke-linejoin="round" stroke-width="1"/>
      </g>
      <path id="Path_279" data-name="Path 279" d="M237.021,221.975a59.656,59.656,0,0,0,.188-9.056l-.014-.207c-.007-.094-.016-.189-.023-.283a25.269,25.269,0,0,0-.979-5.322,19.4,19.4,0,0,0-5.321-8.47l-.146-.137a22.118,22.118,0,0,0-4.891-3.4c-.364-.186-.738-.348-1.11-.517l-.206-.094a42.8,42.8,0,0,0-14.116-3.08c4.128,3.376,5.046,9.968,7.4,15.18a21.516,21.516,0,0,0,13.13,11.971" fill="none" stroke="#000" stroke-linecap="round" stroke-linejoin="round" stroke-width="1"/>
      <path id="Path_270" data-name="Path 270" d="M230.849,198.577a23.009,23.009,0,0,0,1.647,6.156,37.889,37.889,0,0,0,4.736,7.974" transform="translate(3.26 15)" fill="none" stroke="#000" stroke-linecap="round" stroke-linejoin="round" stroke-width="1"/>
      <path id="Path_275" data-name="Path 275" d="M224.748,194.578c-.376,6.019,1.434,12.2,5.684,16.412" fill="none" stroke="#000" stroke-linecap="round" stroke-linejoin="round" stroke-width="1"/>
      <path id="Path_276" data-name="Path 276" d="M241.51,167.419c.6-3.319,2.821-6.137,5.394-8.317s5.53-3.854,8.237-5.864a9.552,9.552,0,0,1-1.112,6.414,21.224,21.224,0,0,1-11.343,10.737" fill="none" stroke="#000" stroke-linecap="round" stroke-linejoin="round" stroke-width="1"/>
      <path id="Path_277" data-name="Path 277" d="M224.465,186.767a22.943,22.943,0,0,1-4.538-12.136c-.35-4.459.494-9.01,1.332-13.488a23.813,23.813,0,0,1,5.057,6.384,15.833,15.833,0,0,1,1.509,3.356c.947,3.231.333,6.848-.287,10.294" fill="none" stroke="#000" stroke-linecap="round" stroke-linejoin="round" stroke-width="1"/>
      <path id="Path_278" data-name="Path 278" d="M222.943,169.451a15.435,15.435,0,0,1,2.849,7.532,34.969,34.969,0,0,1-.168,8.128" fill="none" stroke="#000" stroke-linecap="round" stroke-linejoin="round" stroke-width="1"/>
      <path id="Path_274" data-name="Path 274" d="M224.759,194.5a24.576,24.576,0,0,1,.691-4.479c1.836-7.263,6.612-13.5,12.274-18.415,2.655-2.3,5.519-4.351,8.276-6.534" fill="none" stroke="#000" stroke-linecap="round" stroke-linejoin="round" stroke-width="1"/>
    </g>
  </g>
</svg>
