<svg xmlns="http://www.w3.org/2000/svg" width="15" height="15" viewBox="0 0 15 15">
  <g id="logo-instagram-outline" transform="translate(-2.25 -2.25)">
    <path id="Path_164" data-name="Path 164" d="M12.875,3.5A3.135,3.135,0,0,1,16,6.625v6.25A3.135,3.135,0,0,1,12.875,16H6.625A3.135,3.135,0,0,1,3.5,12.875V6.625A3.135,3.135,0,0,1,6.625,3.5h6.25m0-1.25H6.625A4.388,4.388,0,0,0,2.25,6.625v6.25A4.388,4.388,0,0,0,6.625,17.25h6.25a4.388,4.388,0,0,0,4.375-4.375V6.625A4.388,4.388,0,0,0,12.875,2.25Z" transform="translate(0)" fill="#fcf5f1"/>
    <path id="Path_165" data-name="Path 165" d="M25.674,9.725a1.11,1.11,0,1,1,.787-.325A1.112,1.112,0,0,1,25.674,9.725Z" transform="translate(-11.97 -2.817)" fill="#fcf5f1"/>
    <path id="Path_166" data-name="Path 166" d="M13.684,11.311a2.373,2.373,0,1,1-2.373,2.373,2.373,2.373,0,0,1,2.373-2.373m0-1.186a3.559,3.559,0,1,0,3.559,3.559A3.559,3.559,0,0,0,13.684,10.125Z" transform="translate(-3.934 -3.934)" fill="#fcf5f1"/>
  </g>
</svg>
