<svg xmlns="http://www.w3.org/2000/svg" width="151.531" height="53" viewBox="0 0 151.531 53">
  <g id="Hynt_Logo" data-name="Hynt Logo" transform="translate(-133.11 -131.805)">
    <g id="Group_1" data-name="Group 1" transform="translate(133.11 131.805)">
      <path id="Path_1" data-name="Path 1" d="M192.782,158.636c-.581.332-13.984,7.6-14.456,7.6l-1.03.319a2.4,2.4,0,0,0-.163.428q-.057.2-.164.484a18.145,18.145,0,0,0-.6,2.079,6.7,6.7,0,0,1-.327,1.167,1.343,1.343,0,0,1-.518.569,4.558,4.558,0,0,1-.9.485q-.49.2-.953.342a2.639,2.639,0,0,1-.681.143.542.542,0,0,1-.49-.257,2.049,2.049,0,0,1-.165-1,6.137,6.137,0,0,1,.218-1.68c.144-.512.273-.978.381-1.4a.392.392,0,0,1,.028-.171.412.412,0,0,0,.027-.171,3.763,3.763,0,0,0-.027-.455c-.019-.153-.046-.322-.081-.513a11.472,11.472,0,0,1-2.834-.285q-1.252-.284-2.4-.569a8.082,8.082,0,0,0-1.852-.285,4.608,4.608,0,0,1-1.525-.313q-.871-.313-2.016-.655-.873-.284-1.634-.57t-1.471-.569l-2.506,3.246a5.121,5.121,0,0,1-.573.683,1.663,1.663,0,0,1-.3.228,1.015,1.015,0,0,1-.245.086.941.941,0,0,0-.353.2,3.983,3.983,0,0,0-.709.683,7.448,7.448,0,0,1-1.035.969c-.51.417-.927.769-1.253,1.054a5.884,5.884,0,0,1-1.145.769q-.327.227-1.008.769t-1.661,1.168a24.95,24.95,0,0,1-2.234,1.253,14.723,14.723,0,0,1-2.725,1.026,18.72,18.72,0,0,1-2.941.6,26.89,26.89,0,0,1-2.887.143,6.291,6.291,0,0,1-1.117-.147,8.515,8.515,0,0,1-1.471-.442,5.511,5.511,0,0,1-1.307-.736,1.307,1.307,0,0,1-.572-1.066,2.267,2.267,0,0,1,.109-.6,2.815,2.815,0,0,1,.326-.712,3.153,3.153,0,0,1,.491-.6.808.808,0,0,1,.545-.257.967.967,0,0,1,.736.456c.237.3.444.57.627.8a6.747,6.747,0,0,0,.98.8,3.3,3.3,0,0,0,1.307.57,6.226,6.226,0,0,0,1.69.284,7.8,7.8,0,0,0,2.015-.313,21.454,21.454,0,0,0,3.433-1.451,15.114,15.114,0,0,0,2.506-1.592,17.9,17.9,0,0,0,1.608-1.45,10.048,10.048,0,0,0,.926-1.081q.3-.428.519-.428.435-.342.871-.738a4,4,0,0,0,.762-.969,4.589,4.589,0,0,1,.927-1.194q.6-.567,1.144-1.2l1.689-2.275a6.99,6.99,0,0,1-1.689-1.536,12.032,12.032,0,0,1-1.2-1.705,3.3,3.3,0,0,1-.491-1.65,1.269,1.269,0,0,1,.654-1.024,12.1,12.1,0,0,1,1.581-.91q1.033-.454,1.606-.739a10.115,10.115,0,0,1,1.5-.569c.4-.076.726-.133.98-.171a5.2,5.2,0,0,1,.763-.057,3.68,3.68,0,0,1,1.2.228.36.36,0,0,0,.273.114q.6-.966,1.062-1.65a9.238,9.238,0,0,1,.953-1.194,5.767,5.767,0,0,0,.763-.852q.38-.513.762-1.025a7.857,7.857,0,0,1-2.042.455,22.548,22.548,0,0,1-2.752.171h-.573a2.744,2.744,0,0,1-.571-.057q-1.581-.171-2.561-.342a5.657,5.657,0,0,1-1.8-.625,10.719,10.719,0,0,0-1.879-.853,5.676,5.676,0,0,1-1.608-.8,3.684,3.684,0,0,1-1.144-.967,7.981,7.981,0,0,0-1.09-1.137,4.573,4.573,0,0,1-1.117-1.591,6.562,6.562,0,0,1-.463-2.674,5.2,5.2,0,0,1,.953-3.128,3.78,3.78,0,0,1,.9-.909,3.153,3.153,0,0,1,.872-.456,4.657,4.657,0,0,0,1.281-.825,6.338,6.338,0,0,1,1.607-1,3.28,3.28,0,0,1,.9-.284,6.308,6.308,0,0,1,.844-.057c.364,0,.736.02,1.118.057s.808.077,1.281.114.844.066,1.116.086a4.056,4.056,0,0,1,.735.114,4.505,4.505,0,0,1,.655.228,9.1,9.1,0,0,0,.871.313,4.911,4.911,0,0,1,1.826,1,7.929,7.929,0,0,1,1.335,1.566,1.7,1.7,0,0,1,.327.74.45.45,0,0,1-.354.456,2.356,2.356,0,0,1-.735.114,1.277,1.277,0,0,1-.681-.285,1.655,1.655,0,0,1-.464-.4,6.263,6.263,0,0,0-.817-.911c-.326-.3-.673-.606-1.035-.911a2.389,2.389,0,0,0-1.117-.6,8.289,8.289,0,0,1-1.334-.371,4.824,4.824,0,0,0-1.472-.228c-.29,0-.618.01-.98.029s-.8.048-1.307.085a3.229,3.229,0,0,0-.953.114,1.511,1.511,0,0,0-.545.285,1.7,1.7,0,0,0-.326.4,5.594,5.594,0,0,1-.354.513,2.191,2.191,0,0,0-.355.911,7.017,7.017,0,0,0-.081,1.082v.741a2.21,2.21,0,0,0,.109.683q.108.912.272,1.681a7.01,7.01,0,0,0,.544,1.567,9.96,9.96,0,0,0,1.227,1.709,9.7,9.7,0,0,0,1.39,1.367c.4.3.871.626,1.416.968a4.159,4.159,0,0,0,1.526.626q.708.171,1.771.456a12.9,12.9,0,0,0,3.132.285,10.109,10.109,0,0,0,1.634-.143,12.8,12.8,0,0,0,1.634-.37q.818-1.423,1.363-2.307t.9-1.424a8.084,8.084,0,0,1,.6-.826q.244-.284.517-.57a7.551,7.551,0,0,0,.981-1.282c.291-.475.634-1.034,1.036-1.681a7.95,7.95,0,0,1,1.689-1.794,15.279,15.279,0,0,1,2.4-1.624,3.1,3.1,0,0,1,1.418-.4,1.824,1.824,0,0,1,1.062.285,1,1,0,0,1,.463.569.67.67,0,0,1,.054.285,1.96,1.96,0,0,1-.326,1q-.328.541-.709,1.281a6.953,6.953,0,0,1-.654,1.054,14.07,14.07,0,0,1-.953,1.168q-.519.569-.981,1.053t-.735.826q-.709.8-1.5,1.623a21.163,21.163,0,0,1-1.824,1.681,5.506,5.506,0,0,1-.981.712,7.827,7.827,0,0,0-1.2.883,7.3,7.3,0,0,1-.408.826q-.3.542-.654,1.168l-.709,1.254a12.232,12.232,0,0,1-.681,1.081l-1.362,2.051q.6.341,1.253.8,1.034.8,2.125,1.567a8,8,0,0,1,1.634,1.453q.544.569,1.09,1.139a7.113,7.113,0,0,1,.926,1.2,9.747,9.747,0,0,0,.98,1.2,3.755,3.755,0,0,1,.817,1.31c.144.418.291.789.436,1.111a5.651,5.651,0,0,0,.328.655h.108q.163-.284.845-1.652t1.335-2.848q.762-1.709,1.089-2.477a2.723,2.723,0,0,1,.871-1.168,2.39,2.39,0,0,0,.819-1.167,8.058,8.058,0,0,1,.6-1.339q.163-.284.762-1.338t1.307-2.307q.707-1.253,1.362-2.449t.982-1.766q.654-1.309,1.035-2.193a2.92,2.92,0,0,1,.762-1.167,1.787,1.787,0,0,0,.518-.513c.2-.265.4-.541.6-.826s.372-.55.517-.8a3.068,3.068,0,0,1,.328-.485q.054-.113.326-.6t.682-1.139c.272-.437.58-.892.927-1.367a7.027,7.027,0,0,1,1.115-1.225q.819-.739,1.336-1.2t.872-.712c.236-.171.437-.314.6-.428a6.6,6.6,0,0,0,.572-.456,5.168,5.168,0,0,1,1.144-.513q.818-.283,1.717-.541t1.634-.455q.736-.2.9-.257a3.328,3.328,0,0,1,1.2-.285c.437,0,.654.152.654.455a1.874,1.874,0,0,1-.19.912.548.548,0,0,1-.463.341q-.6,0-1.526.086a2.906,2.906,0,0,0-1.524.541q-.491.342-.763.542t-.463.342a2.827,2.827,0,0,0-.354.313,3.405,3.405,0,0,0-.381.512,7.819,7.819,0,0,0-.627,1.054,5.77,5.77,0,0,1-.789,1.167q-.6.628-1.118,1.139a11.536,11.536,0,0,0-1.335,1.765q-.435.629-.735,1.083c-.2.3-.4.578-.6.825a5.345,5.345,0,0,0-.545.826q-.244.456-.571,1.082t-.736,1.281q-.407.656-.817,1.31c-.271.437-.527.855-.762,1.253a8.112,8.112,0,0,0-.518,1,17.193,17.193,0,0,1-.981,2.051c-.181.342-.346.655-.491.939s-.309.579-.489.883-.382.645-.6,1.025a14.01,14.01,0,0,1-.87,1.309q-1.091,1.538-1.636,2.478t-1.088,1.909q-.492.969-1.28,2.25a11.06,11.06,0,0,0-1.063,2.079c-.074.228.21-.239.119-.125s.073-.151,0,0l20.037-10.645c0,.98,1.219,1.5.944,1.451m-43.057,2.2a2.832,2.832,0,0,0,.462,1.025,6.666,6.666,0,0,0,1.063,1.139l.708-1.025,2.017-3.3q-.6-.113-1.063-.17a7.879,7.879,0,0,0-.954-.057,4.606,4.606,0,0,0-.517.029c-.164.02-.336.048-.518.085a1.525,1.525,0,0,0-.952.57,1.7,1.7,0,0,0-.356,1.083A3.222,3.222,0,0,0,156.43,157.436Zm14.872,7.918a5.5,5.5,0,0,0,1.308.114q-.273-.91-.6-1.737a3.281,3.281,0,0,0-.763-1.225,5.505,5.505,0,0,1-.953-1,1.664,1.664,0,0,0-.571-.542,2.188,2.188,0,0,1-.736-.541,2.172,2.172,0,0,0-.79-.541,1.956,1.956,0,0,1-.519-.371,3.006,3.006,0,0,1-.326-.4c-.091-.132-.2-.275-.328-.428a2.278,2.278,0,0,0-.571-.456q-.6-.4-.981-.683a7.175,7.175,0,0,0-.927-.57l-.872-.456-1.634,2.678q-.273.456-.627.967t-.734,1.026a.883.883,0,0,0,.272.113q1.145.513,1.989.941t1.5.769a10.162,10.162,0,0,0,1.2.542,7.808,7.808,0,0,0,1.09.313q.924.285,1.307.4c.253.077.6.191,1.035.342l1.063.371C170.4,165.079,170.793,165.2,171.3,165.354Z" transform="translate(-133.11 -131.805)" fill="#9b6a45"/>
      <path id="Path_2" data-name="Path 2" d="M335.765,183.754c.144-.115.389-.367.64-.567.31-.246.408-.383.535-.449a5.426,5.426,0,0,0,.6-.409,5.748,5.748,0,0,1,.672-.558,17.456,17.456,0,0,1,1.676-1.078,1.191,1.191,0,0,1,.366-.253,1.119,1.119,0,0,0,.366-.252,1.972,1.972,0,0,0,.754-.619,1.979,1.979,0,0,1,.378-.482.55.55,0,0,0,.209-.127c.1-.083.267-.207.494-.375s.548-.4.966-.69.939-.669,1.566-1.128a5.736,5.736,0,0,0,.8-.737,8.425,8.425,0,0,1,.744-.734,4.34,4.34,0,0,1,1.241-.65,9.657,9.657,0,0,1,1.983-.317,2.6,2.6,0,0,1,1.637.409,2.363,2.363,0,0,1,.9.915,2.476,2.476,0,0,1,.294.727c.03.188.059.531.093,1.024a5.268,5.268,0,0,1-.8,2.6c-.158.356-.251.672-.422,1.08-.155.371-.1.781-.334,1.138a5.606,5.606,0,0,0-.293.965,3.039,3.039,0,0,0-.086.78c.011.19.052.283.126.278.254-.017.405-.063.455-.144a5.158,5.158,0,0,1,.642-.615q.878-.8,1.413-1.38a1.984,1.984,0,0,1,.965-.665.785.785,0,0,0,.522-.377.961.961,0,0,1,.357-.425,6.048,6.048,0,0,1,.637-.643,6.8,6.8,0,0,1,.915-.662c.314-.211.714-.474,1.2-.793a8.05,8.05,0,0,1,1.426-.752,5.09,5.09,0,0,1,1.767-.516,2.96,2.96,0,0,1,.715.068,2.5,2.5,0,0,1,1.991,1.245,6.611,6.611,0,0,0,.607,1.337,4.526,4.526,0,0,1,.557,1.454,3.03,3.03,0,0,0,.721,1.442,3.621,3.621,0,0,1,.781,1.5,2.652,2.652,0,0,0,.321.754c.162.277.326.542.489.8a7.357,7.357,0,0,0,.481.685,2.693,2.693,0,0,0,1.6,1.071,5.085,5.085,0,0,0,2.146.261q1.415-.092,1.955-.185a6.49,6.49,0,0,0,.967-.233,19.416,19.416,0,0,0,2.236-.887,5,5,0,0,1,.929-.4,3.6,3.6,0,0,0,1.182-.706,1.553,1.553,0,0,0,.79-.45,1.207,1.207,0,0,0,.795-.4,1.656,1.656,0,0,1,.952-.462q.545-.036.576.477a.356.356,0,0,1-.064.261.239.239,0,0,0-.073.147l-2.151,1.338a3.275,3.275,0,0,1-1.162.589,4.438,4.438,0,0,0-1.323.65,2.835,2.835,0,0,1-.718.291l-.67.179a9.313,9.313,0,0,0-1.039.419,2.245,2.245,0,0,1-.831.242q-.693.217-1.233.337a7.314,7.314,0,0,1-1.137.16,23.281,23.281,0,0,1-2.453.045q-1.095-.043-1.973-.1a1.118,1.118,0,0,1-.8-.148,2.534,2.534,0,0,0-.98-.364,2.17,2.17,0,0,1-.878-.485,3.252,3.252,0,0,0-.885-.6c-.189-.1-.34-.188-.454-.256a1.23,1.23,0,0,1-.289-.239,4.241,4.241,0,0,1-.268-.353c-.1-.146-.233-.365-.4-.66q-.606-.931-.852-1.372a4.1,4.1,0,0,1-.4-1.059c-.144-.522-.245-.944-.3-1.264a8.06,8.06,0,0,0-.223-.928,10.636,10.636,0,0,0-.354-1.233.719.719,0,0,0-.8-.518,3.275,3.275,0,0,0-1.125.358,7.394,7.394,0,0,0-.678.472,4.008,4.008,0,0,0-.618.582,5.276,5.276,0,0,1-.826.739,13.815,13.815,0,0,1-1.2.82,4.613,4.613,0,0,0-.86.655q-.177.213-.425.569a3.649,3.649,0,0,1-.985.835,8.4,8.4,0,0,0-1.3,1.026,5.269,5.269,0,0,0-.874.827c-.169.22-.368.509-.6.867q-.388.767-.855,1.54t-.82,1.251q-.25.36-.695,1.072a1.371,1.371,0,0,1-1.042.754,1.081,1.081,0,0,1-.666-.158,2.482,2.482,0,0,1-.648-.727,2.128,2.128,0,0,1-.394-1,1.713,1.713,0,0,1,.027-.43c.027-.134.056-.259.087-.376.087-.31.2-.708.332-1.192a9.66,9.66,0,0,1,.484-1.372,2.8,2.8,0,0,0,.29-.99,3.622,3.622,0,0,1,.186-.925,9.151,9.151,0,0,1,.361-1.166c.125-.312.266-.645.428-1a6.239,6.239,0,0,0,.249-.786c.073-.291.144-.58.217-.87s.129-.541.17-.753a3.176,3.176,0,0,1,.107-.436,2.33,2.33,0,0,0,.009-.686,2.664,2.664,0,0,0-.1-.678.928.928,0,0,0-1.015-.5,1.044,1.044,0,0,0-.4.14c-.158.087-.43.237-.816.452a5.068,5.068,0,0,1-.78.622c-.417.293-.712.64-1.2.957s-.961.666-1.467.965a11.529,11.529,0,0,0-1.088.8c-1.046.677-1.5.938-2.02,1.316-.292.211-1.422,1.236-1.912,1.533" transform="translate(-245.236 -155.32)" fill="#9b6a45"/>
      <path id="Path_3" data-name="Path 3" d="M432.664,168.853a1.807,1.807,0,0,0,.272-.57,7.022,7.022,0,0,0,.708-1.025q.327-.569.6-1.025a4.651,4.651,0,0,1,.626-.912,3.294,3.294,0,0,0,.518-.741,12.313,12.313,0,0,1,.925-1.765c-.181.039-.353.067-.517.086a4.426,4.426,0,0,1-.518.028,1.442,1.442,0,0,1-.3-.028,1.27,1.27,0,0,0-.245-.029.568.568,0,0,1-.191-.028.59.59,0,0,0-.19-.029,2.112,2.112,0,0,0-.791.143,2.342,2.342,0,0,0-.625.37,2.16,2.16,0,0,1-.6.257,3.586,3.586,0,0,1-.872.085,3.675,3.675,0,0,1-.817-.114.615.615,0,0,1-.491-.683q0-.455.709-1a2.178,2.178,0,0,1,1.253-.542,4.728,4.728,0,0,1,.954.143,5.715,5.715,0,0,0,1.28.142h.653a6.6,6.6,0,0,0,.872-.057,10.327,10.327,0,0,0,1.09-.057c.109-.189.21-.37.3-.541a1.319,1.319,0,0,1,.354-.428q.435-.454.872-.968a4.555,4.555,0,0,0,.654-.968,5.732,5.732,0,0,1,1.253-1.538,2.685,2.685,0,0,1,.953-.769q.681-.369,1.28-.655a5.2,5.2,0,0,0,.817-.569,1.853,1.853,0,0,1,.763-.4.361.361,0,0,0,.163-.028.355.355,0,0,1,.163-.029,1.2,1.2,0,0,1,.763.257.705.705,0,0,1,.327.541,1.547,1.547,0,0,1-.245.626,2.031,2.031,0,0,1-.68.57,4.885,4.885,0,0,0-.872.769c-.256.284-.528.617-.818,1q-.382.513-.681.94a7.038,7.038,0,0,1-.682.826c-.217.191-.326.342-.326.455a2.56,2.56,0,0,1-.109.57q1.252-.226,2.179-.484a5.879,5.879,0,0,1,1.253-.257h1.2c.254,0,.491.01.708.029s.363.028.437.028c.218,0,.326.134.326.4a.742.742,0,0,1-.38.684,2.257,2.257,0,0,1-.818.171,1.877,1.877,0,0,1-.327-.028,1.949,1.949,0,0,0-.326-.029,3.654,3.654,0,0,0-.544.029c-.11.019-.31.066-.6.142a10.966,10.966,0,0,1-1.225.2q-.736.085-2.642.37a2.642,2.642,0,0,1-.272.6,5.961,5.961,0,0,1-.655.769,6.256,6.256,0,0,0-.844,1.225c-.129.286-.282.618-.464,1-.109.19-.264.484-.463.883s-.408.817-.627,1.253-.435.853-.653,1.253-.4.712-.545.939a6.036,6.036,0,0,0-.762,1.908,7.307,7.307,0,0,1-.709,1.908,9.677,9.677,0,0,0-.572,1.339,4.789,4.789,0,0,0-.245,1.567,3.947,3.947,0,0,0,.055.74,1.177,1.177,0,0,0,.49.8,1.625,1.625,0,0,0,1.035.341,3.119,3.119,0,0,0,1.089-.2,3.028,3.028,0,0,1,1.036-.2q.653-.171,1.171-.257a2.183,2.183,0,0,0,.79-.256,1.548,1.548,0,0,1,.954-.257,1.539,1.539,0,0,0,.953-.256,1.439,1.439,0,0,1,.435-.257,7.27,7.27,0,0,1,.682-.256c.235-.076.462-.153.681-.228a1.172,1.172,0,0,0,.436-.228,1.82,1.82,0,0,1,.654-.285,5.4,5.4,0,0,0,.708-.227q.274-.114.274-.171c0-.039.2-.153.6-.342a7.045,7.045,0,0,0,.979-.542,4.136,4.136,0,0,1,.491-.314,1.342,1.342,0,0,1,.817-.285.575.575,0,0,1,.436.171,1.027,1.027,0,0,1,.163.4.362.362,0,0,1-.08.256l-.137.143a5.443,5.443,0,0,1-.654.342c-.146.076-.31.152-.49.228a2.135,2.135,0,0,1-.383.313c-.144.1-.29.2-.435.314a2.552,2.552,0,0,1-1.172.484,2.95,2.95,0,0,0-1.28.541,1.834,1.834,0,0,1-.655.342,6.647,6.647,0,0,0-.654.228,5.229,5.229,0,0,1-.953.285.852.852,0,0,0-.463.171,1.469,1.469,0,0,1-.517.313c-.237.1-.5.191-.791.285a7.4,7.4,0,0,1-.872.227,2.523,2.523,0,0,0-.654.2c-.29.076-.745.209-1.362.4a15.374,15.374,0,0,1-1.525.4,2.147,2.147,0,0,0-.981.342,2.887,2.887,0,0,1-1.363.341,5.594,5.594,0,0,1-1.8-.314,2.7,2.7,0,0,1-1.2-.655,2.278,2.278,0,0,1-.354-.968,8.442,8.442,0,0,1-.08-1.2,4.881,4.881,0,0,1,.08-.769q.083-.484.164-.968t.19-.882a1.368,1.368,0,0,1,.274-.57,2.335,2.335,0,0,0,.408-.939,3.37,3.37,0,0,1,.3-.883,2.982,2.982,0,0,0,.408-.939q.246-.77.517-1.624" transform="translate(-297.04 -144.433)" fill="#9b6a45"/>
      <path id="Path_4" data-name="Path 4" d="M273.176,179.8a7.717,7.717,0,0,1,.982-.57q.6-.285,1.443-.6a5.866,5.866,0,0,1,1.444-.37,3.128,3.128,0,0,1,1.171.228,5.657,5.657,0,0,1,1.009.512,1.291,1.291,0,0,1,.517.741c.055.265.118.607.191,1.025a1.521,1.521,0,0,1-.245.6q-.244.427-.572.94t-.654,1a2.616,2.616,0,0,0-.381.712,2.252,2.252,0,0,1-.491.769,2.015,2.015,0,0,0-.436.6c-.145.3-.264.569-.353.8a1.649,1.649,0,0,1-.464.627,4.734,4.734,0,0,0-.3.6c-.129.285-.245.579-.355.883s-.21.607-.3.911a2.73,2.73,0,0,0-.137.626.457.457,0,0,0,.274.428,1.26,1.26,0,0,0,.6.142,1.454,1.454,0,0,0,.3-.028,2.3,2.3,0,0,0,.3-.086,4.1,4.1,0,0,0,.954-.484,6.9,6.9,0,0,1,.952-.542,8.809,8.809,0,0,0,.844-.627,9.133,9.133,0,0,1,.845-.626,4.043,4.043,0,0,0,1.089-.883,2.928,2.928,0,0,1,1.2-.826,2.453,2.453,0,0,0,.98-.569,1.516,1.516,0,0,0,.326-.4l.981-.911.845-.769a3.087,3.087,0,0,1,.79-.541,3.287,3.287,0,0,1,1.689-.57,1.039,1.039,0,0,1,.49.114,9.184,9.184,0,0,1,1.089.627,2.124,2.124,0,0,1,.926,1.31,4.963,4.963,0,0,0,.19.655,1.96,1.96,0,0,1,.111.341c.017.1.035.191.053.285a2.929,2.929,0,0,1,.027.485,15.245,15.245,0,0,1-.136,1.738,6.51,6.51,0,0,1-.354,1.623,4.2,4.2,0,0,0-.19.712c-.055.285-.218.624-.289.889-.109.3.072-.07,0,.235.363-.19.293-.185.613-.361.523-.289-.18.042.036-.055a2.178,2.178,0,0,1,.56-.235c.254-.057.27-.179.667-.432a4.555,4.555,0,0,1,.632-.4c.5-.271.4-.319.577-.433a1.81,1.81,0,0,1,.648-.343.511.511,0,0,0,.307-.144c.216-.181.38-.216.38-.253s.794-.541,1.154-.83c.1-.082.469-.342.632-.467.139-.107.433-.288.522-.344.289-.18.795-.4,1.046-.559.088-.056,1.342-.708,1.488-.765s.623.62.768.62a.474.474,0,0,1,.378.2c.11.191-1.025.786-1.1.794a.38.38,0,0,0-.287.162c-.056.057-.291.179-.326.216l-1.207.848a12.173,12.173,0,0,1-1.227.757c-.3.137-.524.343-1.1.632-.237.118-.469.339-.613.4s-.655.308-.829.4a8.789,8.789,0,0,0-.758.487c-.235.089-.3.234-.542.343a2.764,2.764,0,0,0-.36.2,3.206,3.206,0,0,0-.632.451c-.2.162-.438.392-.612.506a3.581,3.581,0,0,1-.8.477,7.8,7.8,0,0,0-.9.4q-.763,1.994-1.09,2.9a4.788,4.788,0,0,1-.6,1.254,5.787,5.787,0,0,1-.6.911,8.258,8.258,0,0,0-.6.854q-.328.626-.763,1.424a7.738,7.738,0,0,1-.872,1.31q-.381.455-.871,1.025a13.027,13.027,0,0,1-.982,1.025,2.222,2.222,0,0,0-.654.8,1.089,1.089,0,0,1-.489.569,2.033,2.033,0,0,0-.817.683q-.545.627-.764.912a5.491,5.491,0,0,1-.98.826,14.142,14.142,0,0,1-1.8,1.11,7.283,7.283,0,0,1-1.852.8,7.779,7.779,0,0,1-2.234.342h-.491a1.278,1.278,0,0,1-.49-.114,4.153,4.153,0,0,1-1.8-1.081,2.223,2.223,0,0,1-.709-1.539,5.667,5.667,0,0,1,.245-1.624,3.567,3.567,0,0,1,.626-1.281,7.534,7.534,0,0,0,.817-.883,11.888,11.888,0,0,0,.764-1.053c.252-.3.462-.542.625-.712a3.9,3.9,0,0,1,.681-.541,1.838,1.838,0,0,1,.654-.314,1.484,1.484,0,0,0,.654-.484,9.609,9.609,0,0,1,.927-.854q.489-.4,1.144-.854.707-.571,1.417-1.054a9.62,9.62,0,0,1,1.634-.883,5.159,5.159,0,0,0,.681-.313,2.678,2.678,0,0,0,.408-.285,4,4,0,0,1,.326-.257,2.4,2.4,0,0,1,.436-.228q.6-.285,1.226-.569c.417-.19.772-.342,1.062-.456a3.076,3.076,0,0,0,1.145-.74c.036-.076.082-.19.135-.342s.145-.37.273-.655.3-.692.518-1.225a10.581,10.581,0,0,0,.517-1.594c.163-.645.3-1.234.408-1.766q.217-.8.328-1.424a9.432,9.432,0,0,1,.381-1.424,1.9,1.9,0,0,0,.109-.512,1.246,1.246,0,0,0-.271-.8.774.774,0,0,0-.6-.342,1.155,1.155,0,0,0-.572.171,3.108,3.108,0,0,0-.734.683q-.547.513-.845.74t-.682.57a11.188,11.188,0,0,1-1.035.825q-.6.427-1.035.769a2.4,2.4,0,0,1-.9.541,1.513,1.513,0,0,0-.79.6,1.951,1.951,0,0,1-.982.655,4.127,4.127,0,0,0-1.144.6,7.1,7.1,0,0,1-.926.655,8.242,8.242,0,0,0-.872.6,3.673,3.673,0,0,1-.817.341,3.458,3.458,0,0,1-1.035.171,1.1,1.1,0,0,1-.6-.114q-.437-.113-1.062-.284a1.423,1.423,0,0,1-.9-.627,3.3,3.3,0,0,1-.436-1,4.638,4.638,0,0,1-.163-1.225,2.572,2.572,0,0,1,.353-1.339q.355-.6.844-1.281a2.042,2.042,0,0,0,.381-.911,2.178,2.178,0,0,1,.272-.8c.073-.076.21-.237.41-.485s.408-.492.626-.74.417-.493.6-.74a4.406,4.406,0,0,0,.327-.484,2.342,2.342,0,0,0,.191-.371.893.893,0,0,0,.082-.313q0-.684-.654-.683a5.338,5.338,0,0,0-1.417.427m9.862,16.832c.18-.3.381-.608.6-.912a8.924,8.924,0,0,0,.762-1.424c-.51.3-1,.6-1.471.883a8.716,8.716,0,0,0-.981.655,1.964,1.964,0,0,1-1.008.655,8.083,8.083,0,0,0-1.5.712,11.889,11.889,0,0,0-1.336.911q-.572.455-1.117.854-.382.284-.926.741t-.981.8a12.33,12.33,0,0,0-1.063.968q-.626.626-1.008,1.026a11.151,11.151,0,0,0-1.116,1.452,9.923,9.923,0,0,0-.681,1.282,1.95,1.95,0,0,0-.11.456,1.091,1.091,0,0,0,.218.683,1.209,1.209,0,0,0,.491.4,1.826,1.826,0,0,0,.544.058,4.654,4.654,0,0,0,1.036-.143,9.856,9.856,0,0,0,1.2-.371,4.41,4.41,0,0,0,1.716-1.282,14.38,14.38,0,0,1,1.607-1.566,2.729,2.729,0,0,0,.926-.855,4.373,4.373,0,0,1,.925-1.025,3.712,3.712,0,0,0,.736-1.082,1.413,1.413,0,0,1,.517-.683,2.658,2.658,0,0,0,.546-.513,3.92,3.92,0,0,0,.381-.8,4.534,4.534,0,0,1,.517-1Q283.146,198.594,283.419,198.138Z" transform="translate(-208.672 -157.555)" fill="#9b6a45"/>
    </g>
    <g id="Group_2" data-name="Group 2" transform="translate(215.862 176.632)">
      <path id="Path_5" data-name="Path 5" d="M318.432,232.027h3.393c1.373,0,2.3.444,2.3,1.787a1.581,1.581,0,0,1-.98,1.5,1.761,1.761,0,0,1,1.323,1.828c0,1.464-1.242,2.09-2.545,2.09h-3.494Zm1.586,2.918h1.605c.555,0,.969-.252.969-.858,0-.686-.525-.828-1.091-.828h-1.484Zm0,3.06h1.7c.626,0,1.171-.2,1.171-.949s-.464-1.03-1.141-1.03h-1.726Z" transform="translate(-318.432 -232.027)" fill="#9b6a45"/>
      <path id="Path_6" data-name="Path 6" d="M345.9,232.027H351.3v1.333H347.49V234.9h3.494v1.232H347.49V237.9h3.888v1.333H345.9Z" transform="translate(-333.579 -232.027)" fill="#9b6a45"/>
      <path id="Path_7" data-name="Path 7" d="M373.142,232.027h1.626l2.7,7.21h-1.646l-.546-1.606h-2.7l-.566,1.606h-1.605Zm-.151,4.423h1.868l-.908-2.646h-.02Z" transform="translate(-347.088 -232.027)" fill="#9b6a45"/>
      <path id="Path_8" data-name="Path 8" d="M405.244,236.51c0,1.949-1.152,2.9-3.08,2.9s-3.069-.939-3.069-2.9v-4.483h1.585v4.483c0,.787.2,1.565,1.484,1.565,1.131,0,1.495-.494,1.495-1.565v-4.483h1.585Z" transform="translate(-362.906 -232.027)" fill="#9b6a45"/>
      <path id="Path_9" data-name="Path 9" d="M428.367,233.36h-2.161v-1.333h5.907v1.333h-2.161v5.877h-1.585Z" transform="translate(-377.854 -232.027)" fill="#9b6a45"/>
      <path id="Path_10" data-name="Path 10" d="M453.746,236.43l-2.656-4.4h1.787l1.686,2.848,1.676-2.848h1.768l-2.676,4.443v2.767h-1.585Z" transform="translate(-391.575 -232.027)" fill="#9b6a45"/>
    </g>
  </g>
</svg>
