<svg xmlns="http://www.w3.org/2000/svg" width="12.808" height="16" viewBox="0 0 12.808 16">
  <path id="pinterest" d="M3.718,6.372a2.83,2.83,0,0,1,.526-1.728,1.548,1.548,0,0,1,1.277-.713,1.135,1.135,0,0,1,.958.413A1.61,1.61,0,0,1,6.8,5.358a4.952,4.952,0,0,1-.113.939q-.15.526-.375,1.277-.225.713-.338,1.164a1.366,1.366,0,0,0,.282,1.3,1.537,1.537,0,0,0,1.221.545A2.477,2.477,0,0,0,9.634,9.1a7.138,7.138,0,0,0,.845-3.587A3.522,3.522,0,0,0,9.446,2.879,3.98,3.98,0,0,0,6.535,1.865,4.527,4.527,0,0,0,3.136,3.2,4.442,4.442,0,0,0,1.84,6.41a2.892,2.892,0,0,0,.639,1.878.522.522,0,0,1,.15.526,5.161,5.161,0,0,0-.188.751.413.413,0,0,1-.206.244.432.432,0,0,1-.282.019A2.83,2.83,0,0,1,.488,8.439,4.977,4.977,0,0,1,0,6.184,5.429,5.429,0,0,1,.263,4.532a5.545,5.545,0,0,1,.826-1.6A6.669,6.669,0,0,1,2.441,1.565,6.251,6.251,0,0,1,4.357.607,8.04,8.04,0,0,1,6.8.25,6.657,6.657,0,0,1,9.258.7a5.683,5.683,0,0,1,1.915,1.2,5.441,5.441,0,0,1,1.2,1.746A5.1,5.1,0,0,1,12.808,5.7a7.373,7.373,0,0,1-1.427,4.657A4.453,4.453,0,0,1,7.7,12.193a3.035,3.035,0,0,1-1.408-.338,2.073,2.073,0,0,1-.92-.826q-.563,2.178-.676,2.592A8.758,8.758,0,0,1,3.343,16.25H2.7A9.156,9.156,0,0,1,2.779,13.1L4.019,7.912A3.593,3.593,0,0,1,3.718,6.372Z" transform="translate(0 -0.25)" fill="#fcf5f1"/>
</svg>
