<svg xmlns="http://www.w3.org/2000/svg" width="16" height="13.333" viewBox="0 0 16 13.333">
  <path id="twitter" d="M16,4.56a4.3,4.3,0,0,1-.6.856,4.41,4.41,0,0,1-1.079.91q.018.143.027.268a9.708,9.708,0,0,1-.687,3.719,9.793,9.793,0,0,1-3.9,4.843,10.247,10.247,0,0,1-6.1,1.115A7,7,0,0,1,0,14.852a6.83,6.83,0,0,0,4.888-1.409,3.367,3.367,0,0,1-3.1-2.3,2.087,2.087,0,0,0,.7.036,6.471,6.471,0,0,0,.785-.107,3.679,3.679,0,0,1-2.23-1.73A3.73,3.73,0,0,1,.66,7.7a3.134,3.134,0,0,0,1.48.446A3.825,3.825,0,0,1,.687,5.781a4.377,4.377,0,0,1,.4-2.132A11.21,11.21,0,0,0,4.9,6.5a7.889,7.889,0,0,0,2.988.624,3.993,3.993,0,0,1,.4-2.533,3.451,3.451,0,0,1,2.06-1.5,3.041,3.041,0,0,1,3.05.945,5.429,5.429,0,0,0,2.123-.785,3.22,3.22,0,0,1-1.463,1.891A9.275,9.275,0,0,0,16,4.559Z" transform="translate(0 -3)" fill="#fcf5f1"/>
</svg>
