<svg xmlns="http://www.w3.org/2000/svg" width="13.232" height="16" viewBox="0 0 13.232 16">
  <path id="youtube" d="M8.971,11.107v1.884q0,.6-.348.6a.573.573,0,0,1-.4-.2V10.705a.573.573,0,0,1,.4-.2q.348,0,.348.6Zm3.018.009v.411h-.8v-.411q0-.607.4-.607t.4.607ZM3.364,9.17H4.32V8.331H1.534V9.17h.937v5.08h.893V9.17Zm2.572,5.08h.795V9.84H5.936v3.375q-.268.375-.509.375-.161,0-.188-.188a2.493,2.493,0,0,1-.009-.312V9.84H4.436v3.491a2.207,2.207,0,0,0,.072.652.481.481,0,0,0,.518.33,1.307,1.307,0,0,0,.911-.544v.482Zm3.83-1.321V11.17a3.172,3.172,0,0,0-.08-.884.62.62,0,0,0-.634-.5,1.075,1.075,0,0,0-.83.482V8.33H7.427v5.92h.795v-.428a1.108,1.108,0,0,0,.83.491.618.618,0,0,0,.634-.491,3.278,3.278,0,0,0,.08-.893Zm3.018-.089v-.116h-.812a4.431,4.431,0,0,1-.018.544.342.342,0,0,1-.357.321q-.411,0-.411-.616V12.2h1.6v-.92a1.772,1.772,0,0,0-.241-1.036,1.22,1.22,0,0,0-1.9,0,1.721,1.721,0,0,0-.25,1.036v1.544a1.675,1.675,0,0,0,.259,1.036,1.146,1.146,0,0,0,.964.456,1.105,1.105,0,0,0,1.152-.956,3.948,3.948,0,0,0,.018-.518ZM7.355,4.688V2.812q0-.616-.384-.616t-.384.616V4.688q0,.625.384.625T7.355,4.688Zm6.42,6.705a15.477,15.477,0,0,1-.232,3.125,1.7,1.7,0,0,1-.518.884,1.56,1.56,0,0,1-.911.411A47.725,47.725,0,0,1,7.159,16,47.725,47.725,0,0,1,2.2,15.812a1.584,1.584,0,0,1-.915-.411,1.63,1.63,0,0,1-.513-.884,15.16,15.16,0,0,1-.232-3.125A15.477,15.477,0,0,1,.775,8.268a1.7,1.7,0,0,1,.518-.884,1.617,1.617,0,0,1,.92-.42q1.634-.179,4.946-.179t4.956.179a1.676,1.676,0,0,1,1.428,1.3,15.16,15.16,0,0,1,.232,3.125ZM4.864,0h.911L4.695,3.563v2.42H3.8V3.563A15.1,15.1,0,0,0,3.257,1.67Q2.927.75,2.677,0h.946l.634,2.348Zm3.3,2.973V4.536a1.76,1.76,0,0,1-.25,1.054,1.112,1.112,0,0,1-.946.456,1.1,1.1,0,0,1-.937-.456,1.783,1.783,0,0,1-.25-1.054V2.973a1.739,1.739,0,0,1,.25-1.044,1.1,1.1,0,0,1,.937-.456,1.112,1.112,0,0,1,.946.456A1.739,1.739,0,0,1,8.168,2.973Zm2.991-1.446V5.983h-.812V5.492a1.285,1.285,0,0,1-.92.554.5.5,0,0,1-.527-.33,2.287,2.287,0,0,1-.072-.67V1.527h.812V4.8a2.348,2.348,0,0,0,.009.312q.027.2.188.2.241,0,.509-.384v-3.4h.812Z" transform="translate(-0.543)" fill="#fcf5f1"/>
</svg>
